<svg width="24" height="24" viewBox="0 0 24 24" fill="none" xmlns="http://www.w3.org/2000/svg">
<path fill-rule="evenodd" clip-rule="evenodd" d="M10.0314 5.15171C10.104 5.22436 10.1535 5.31697 10.1734 5.41778C10.1934 5.51858 10.1829 5.62304 10.1434 5.71789C9.82731 6.4764 9.66517 7.29017 9.66635 8.11189C9.66635 9.76201 10.3219 11.3445 11.4887 12.5114C12.6555 13.6782 14.238 14.3337 15.8882 14.3337C16.7099 14.3349 17.5237 14.1727 18.2822 13.8567C18.377 13.8172 18.4813 13.8067 18.582 13.8267C18.6828 13.8466 18.7753 13.8959 18.848 13.9685C18.9206 14.041 18.97 14.1335 18.9901 14.2342C19.0101 14.3349 18.9997 14.4393 18.9604 14.5341C18.4087 15.8568 17.478 16.9866 16.2854 17.7813C15.0929 18.576 13.6919 19 12.2588 19C8.24986 19 5 15.7509 5 11.7413C5 8.72163 6.84373 6.13337 9.46587 5.03972C9.56063 5.00033 9.66495 4.98994 9.76562 5.00988C9.86629 5.02981 9.95877 5.07918 10.0314 5.15171Z" fill="black"/>
</svg>
