<svg width="24" height="24" viewBox="0 0 24 24" fill="none" xmlns="http://www.w3.org/2000/svg">
<path fill-rule="evenodd" clip-rule="evenodd" d="M8.82828 3.20589C8.92691 3.30449 8.99402 3.43017 9.02108 3.56698C9.04814 3.70379 9.03394 3.84556 8.98027 3.97428C8.55135 5.00369 8.3313 6.10809 8.33291 7.22328C8.33291 9.46273 9.22253 11.6105 10.8061 13.194C12.3896 14.7775 14.5373 15.6671 16.7768 15.6671C17.892 15.6687 18.9964 15.4487 20.0258 15.0198C20.1544 14.9662 20.2961 14.952 20.4328 14.979C20.5695 15.006 20.6951 15.073 20.7937 15.1715C20.8922 15.27 20.9594 15.3955 20.9865 15.5322C21.0137 15.6689 20.9996 15.8105 20.9462 15.9392C20.1975 17.7342 18.9344 19.2676 17.316 20.3461C15.6975 21.4246 13.7961 22.0001 11.8512 22C6.41052 22 2 17.5904 2 12.1489C2 8.05078 4.5022 4.53814 8.06083 3.0539C8.18943 3.00044 8.33101 2.98635 8.46763 3.01341C8.60425 3.04046 8.72976 3.10745 8.82828 3.20589Z" fill="black"/>
</svg>
