<svg width="24" height="24" viewBox="0 0 24 24" fill="none" xmlns="http://www.w3.org/2000/svg">
<g clip-path="url(#clip0_40_6)">
<path d="M12 0C12.2448 0 12.4796 0.0972524 12.6527 0.270363C12.8258 0.443473 12.9231 0.678262 12.9231 0.923077V3.69231C12.9231 3.93712 12.8258 4.17191 12.6527 4.34502C12.4796 4.51813 12.2448 4.61538 12 4.61538C11.7552 4.61538 11.5204 4.51813 11.3473 4.34502C11.1742 4.17191 11.0769 3.93712 11.0769 3.69231V0.923077C11.0769 0.678262 11.1742 0.443473 11.3473 0.270363C11.5204 0.0972524 11.7552 0 12 0ZM6.46154 12C6.46154 10.5311 7.04505 9.12238 8.08372 8.08372C9.12238 7.04505 10.5311 6.46154 12 6.46154C13.4689 6.46154 14.8776 7.04505 15.9163 8.08372C16.9549 9.12238 17.5385 10.5311 17.5385 12C17.5385 13.4689 16.9549 14.8776 15.9163 15.9163C14.8776 16.9549 13.4689 17.5385 12 17.5385C10.5311 17.5385 9.12238 16.9549 8.08372 15.9163C7.04505 14.8776 6.46154 13.4689 6.46154 12ZM20.4849 4.81969C20.648 4.64471 20.7367 4.41327 20.7325 4.17413C20.7283 3.93499 20.6314 3.70682 20.4623 3.5377C20.2932 3.36857 20.065 3.2717 19.8259 3.26748C19.5867 3.26326 19.3553 3.35202 19.1803 3.51508L17.2222 5.472C17.134 5.55711 17.0636 5.65893 17.0152 5.77153C16.9667 5.88413 16.9412 6.00524 16.9401 6.1278C16.939 6.25037 16.9623 6.37193 17.0086 6.48539C17.055 6.59886 17.1235 6.70195 17.2101 6.78866C17.2967 6.87537 17.3998 6.94396 17.5132 6.99043C17.6266 7.0369 17.7481 7.06031 17.8707 7.0593C17.9933 7.0583 18.1144 7.03289 18.227 6.98457C18.3397 6.93624 18.4416 6.86597 18.5268 6.77785L20.4849 4.81969ZM24 12C24 12.2448 23.9027 12.4796 23.7296 12.6527C23.5565 12.8258 23.3217 12.9231 23.0769 12.9231H20.3077C20.0629 12.9231 19.8281 12.8258 19.655 12.6527C19.4819 12.4796 19.3846 12.2448 19.3846 12C19.3846 11.7552 19.4819 11.5204 19.655 11.3473C19.8281 11.1742 20.0629 11.0769 20.3077 11.0769H23.0769C23.3217 11.0769 23.5565 11.1742 23.7296 11.3473C23.9027 11.5204 24 11.7552 24 12ZM19.1803 20.4849C19.3553 20.648 19.5867 20.7367 19.8259 20.7325C20.065 20.7283 20.2932 20.6314 20.4623 20.4623C20.6314 20.2932 20.7283 20.065 20.7325 19.8259C20.7367 19.5867 20.648 19.3553 20.4849 19.1803L18.528 17.2222C18.4429 17.134 18.3411 17.0636 18.2285 17.0152C18.1159 16.9667 17.9948 16.9412 17.8722 16.9401C17.7496 16.939 17.6281 16.9623 17.5146 17.0086C17.4011 17.055 17.298 17.1235 17.2113 17.2101C17.1246 17.2967 17.056 17.3998 17.0096 17.5132C16.9631 17.6266 16.9397 17.7481 16.9407 17.8707C16.9417 17.9933 16.9671 18.1144 17.0154 18.227C17.0638 18.3397 17.134 18.4416 17.2222 18.5268L19.1803 20.4849ZM12 19.3846C12.2448 19.3846 12.4796 19.4819 12.6527 19.655C12.8258 19.8281 12.9231 20.0629 12.9231 20.3077V23.0769C12.9231 23.3217 12.8258 23.5565 12.6527 23.7296C12.4796 23.9027 12.2448 24 12 24C11.7552 24 11.5204 23.9027 11.3473 23.7296C11.1742 23.5565 11.0769 23.3217 11.0769 23.0769V20.3077C11.0769 20.0629 11.1742 19.8281 11.3473 19.655C11.5204 19.4819 11.7552 19.3846 12 19.3846ZM6.77908 18.5268C6.94714 18.3526 7.04008 18.1194 7.03786 17.8774C7.03564 17.6353 6.93845 17.4039 6.76723 17.2328C6.596 17.0617 6.36443 16.9647 6.1224 16.9628C5.88037 16.9608 5.64725 17.0539 5.47323 17.2222L3.51508 19.1791C3.34685 19.3531 3.25369 19.5862 3.25568 19.8283C3.25767 20.0703 3.35464 20.3018 3.52571 20.4731C3.69677 20.6443 3.92825 20.7415 4.17028 20.7437C4.4123 20.7459 4.64552 20.653 4.81969 20.4849L6.77785 18.528L6.77908 18.5268ZM4.61538 12C4.61538 12.2448 4.51813 12.4796 4.34502 12.6527C4.17191 12.8258 3.93712 12.9231 3.69231 12.9231H0.923077C0.678262 12.9231 0.443473 12.8258 0.270363 12.6527C0.0972524 12.4796 0 12.2448 0 12C0 11.7552 0.0972524 11.5204 0.270363 11.3473C0.443473 11.1742 0.678262 11.0769 0.923077 11.0769H3.69231C3.93712 11.0769 4.17191 11.1742 4.34502 11.3473C4.51813 11.5204 4.61538 11.7552 4.61538 12ZM5.47323 6.77785C5.64822 6.9409 5.87966 7.02967 6.1188 7.02545C6.35794 7.02123 6.5861 6.92435 6.75523 6.75523C6.92435 6.5861 7.02123 6.35794 7.02545 6.1188C7.02967 5.87966 6.9409 5.64822 6.77785 5.47323L4.82092 3.51508C4.64691 3.34685 4.41378 3.25369 4.17175 3.25568C3.92972 3.25767 3.69815 3.35464 3.52693 3.52571C3.3557 3.69677 3.25851 3.92825 3.2563 4.17028C3.25408 4.4123 3.34701 4.64552 3.51508 4.81969L5.47323 6.77785Z" fill="black"/>
</g>
<defs>
<clipPath id="clip0_40_6">
<rect width="24" height="24" fill="white"/>
</clipPath>
</defs>
</svg>
