<svg width="173" height="163" viewBox="0 0 173 163" fill="none" xmlns="http://www.w3.org/2000/svg">
<g clip-path="url(#clip0_55_6)">
<path d="M19.9741 30.904C19.6496 21.5894 26.9102 13 36.7243 13H137.288C147.102 13 154.363 21.5894 154.038 30.904C153.727 39.8517 154.131 51.4423 157.05 60.8929C159.977 70.3728 164.914 76.3649 173 77.1348V85.8652C164.914 86.6352 159.977 92.6272 157.05 102.107C154.131 111.558 153.727 123.148 154.038 132.096C154.363 141.411 147.102 150 137.288 150H36.7243C26.9102 150 19.6496 141.411 19.9744 132.096C20.2858 123.148 19.881 111.558 16.9624 102.107C14.035 92.6272 9.08602 86.6352 1 85.8652V77.1348C9.08568 76.3649 14.035 70.3728 16.9624 60.8929C19.881 51.4423 20.2858 39.8517 19.9741 30.904Z" fill="black"/>
<g filter="url(#filter0_d_55_6)">
<path d="M90.7299 117.918C106.619 117.918 116.193 110.142 116.193 97.3161C116.193 87.621 109.362 80.6021 99.2177 79.491V79.0871C106.67 77.8752 112.519 70.9574 112.519 63.2317C112.519 52.2237 103.824 45.053 90.5747 45.053H60.7636V117.918H90.7299ZM72.3568 54.2938H87.78C96.1644 54.2938 100.926 58.0304 100.926 64.7968C100.926 72.0178 95.388 76.0573 85.3475 76.0573H72.3568V54.2938ZM72.3568 108.678V84.6923H87.6762C98.6483 84.6923 104.341 88.7318 104.341 96.6093C104.341 104.486 98.8038 108.678 88.3491 108.678H72.3568Z" fill="url(#paint0_linear_55_6)"/>
<path d="M90.7299 117.918C106.619 117.918 116.193 110.142 116.193 97.3161C116.193 87.621 109.362 80.6021 99.2177 79.491V79.0871C106.67 77.8752 112.519 70.9574 112.519 63.2317C112.519 52.2237 103.824 45.053 90.5747 45.053H60.7636V117.918H90.7299ZM72.3568 54.2938H87.78C96.1644 54.2938 100.926 58.0304 100.926 64.7968C100.926 72.0178 95.388 76.0573 85.3475 76.0573H72.3568V54.2938ZM72.3568 108.678V84.6923H87.6762C98.6483 84.6923 104.341 88.7318 104.341 96.6093C104.341 104.486 98.8038 108.678 88.3491 108.678H72.3568Z" stroke="white"/>
</g>
</g>
<defs>
<filter id="filter0_d_55_6" x="44.2636" y="32.553" width="88.4297" height="105.865" filterUnits="userSpaceOnUse" color-interpolation-filters="sRGB">
<feFlood flood-opacity="0" result="BackgroundImageFix"/>
<feColorMatrix in="SourceAlpha" type="matrix" values="0 0 0 0 0 0 0 0 0 0 0 0 0 0 0 0 0 0 127 0" result="hardAlpha"/>
<feOffset dy="4"/>
<feGaussianBlur stdDeviation="8"/>
<feColorMatrix type="matrix" values="0 0 0 0 0 0 0 0 0 0 0 0 0 0 0 0 0 0 0.15 0"/>
<feBlend mode="normal" in2="BackgroundImageFix" result="effect1_dropShadow_55_6"/>
<feBlend mode="normal" in="SourceGraphic" in2="effect1_dropShadow_55_6" result="shape"/>
</filter>
<linearGradient id="paint0_linear_55_6" x1="66.0066" y1="49.849" x2="99.5797" y2="106.654" gradientUnits="userSpaceOnUse">
<stop stop-color="white"/>
<stop offset="1" stop-color="#F1E5FC"/>
</linearGradient>
<clipPath id="clip0_55_6">
<rect width="172" height="137" fill="white" transform="translate(1 13)"/>
</clipPath>
</defs>
</svg>
