<svg width="357" height="163" viewBox="0 0 357 163" fill="none" xmlns="http://www.w3.org/2000/svg">
<path d="M214.045 72.3918H204.009L204.026 91.1075C204.026 96.5766 201.673 101.001 196.186 101.001C190.696 101.001 188.321 96.5766 188.321 91.1075V72.4095H178.312L178.309 91.1075C178.309 101.915 185.28 110.675 196.125 110.675C206.967 110.675 214.042 101.915 214.042 91.1075L214.045 72.3918Z" fill="black"/>
<path d="M314.525 60.9871H304.538V109.709H314.525V60.9871Z" fill="black"/>
<path d="M321.898 62.7845V61.0339H329.681V62.7845H326.834V70.4995H324.747V62.7845H321.898Z" fill="black"/>
<path d="M333.71 61.0344L335.931 67.5425H335.958L338.058 61.0344H341V70.4994H339.045V63.7913H339.017L336.69 70.4994H335.08L332.753 63.8578H332.726V70.4994H330.772V61.0344H333.71Z" fill="black"/>
<path d="M170.148 71.9849C161.54 70.0046 156.11 78.5286 155.884 78.9856C155.773 79.2101 155.769 79.3407 155.388 79.3311C155.073 79.3243 155.038 78.9856 155.038 78.9856L153.969 72.4651H145.023V109.677H155.051V89.5349C155.051 87.8892 159.497 79.9976 168.114 82.0283C172.471 83.0565 174.32 84.8996 174.32 84.8996V73.5627C173.01 72.8454 171.606 72.3144 170.148 71.9849Z" fill="black"/>
<path d="M237.374 81.4135C239.353 81.4131 241.288 81.9977 242.934 83.0934C244.579 84.1891 245.862 85.7467 246.62 87.5692C247.377 89.3917 247.576 91.3971 247.19 93.332C246.804 95.2668 245.851 97.044 244.451 98.439C243.052 99.8339 241.268 100.784 239.327 101.169C237.386 101.553 235.374 101.356 233.545 100.6C231.717 99.8454 230.154 98.5668 229.055 96.9263C227.955 95.2859 227.369 93.3574 227.369 91.3847C227.37 88.7404 228.424 86.2046 230.3 84.3348C232.176 82.465 234.72 81.4142 237.374 81.4135ZM227.653 121.934V108.544L227.656 108.547L227.659 103.532C227.659 103.532 227.674 103.131 228.037 103.127C228.36 103.123 228.432 103.336 228.511 103.532C229.272 105.419 233.453 112.602 242.733 110.349C246.273 109.354 249.464 107.394 251.948 104.689C254.431 101.985 256.109 98.6433 256.791 95.0406C257.473 91.4378 257.133 87.7169 255.809 84.2962C254.485 80.8756 252.23 77.8909 249.297 75.678C246.365 73.4651 242.87 72.1117 239.208 71.7701C235.546 71.4284 231.86 72.1121 228.566 73.7442C225.272 75.3763 222.501 77.8921 220.563 81.0085C218.626 84.1249 217.599 87.7184 217.598 91.3847V121.934L227.653 121.934Z" fill="black"/>
<path d="M290.716 91.385C290.716 93.3576 290.13 95.2861 289.03 96.9265C287.931 98.5668 286.368 99.8455 284.54 100.601C282.711 101.356 280.699 101.554 278.758 101.169C276.817 100.784 275.034 99.8345 273.634 98.4397C272.235 97.0449 271.282 95.2678 270.895 93.3331C270.509 91.3983 270.707 89.3929 271.465 87.5704C272.222 85.7479 273.505 84.1902 275.15 83.0944C276.796 81.9985 278.731 81.4136 280.71 81.4137C283.363 81.4143 285.908 82.465 287.784 84.3348C289.66 86.2046 290.715 88.7405 290.716 91.385ZM290.43 109.694H300.485V91.385C300.485 87.7188 299.458 84.1254 297.521 81.0091C295.583 77.8927 292.812 75.377 289.518 73.7449C286.224 72.1127 282.539 71.429 278.877 71.7705C275.215 72.112 271.721 73.4652 268.788 75.6779C265.855 77.8907 263.6 80.8751 262.276 84.2956C260.952 87.7161 260.612 91.4369 261.294 95.0395C261.976 98.6421 263.653 101.984 266.136 104.688C268.62 107.393 271.811 109.353 275.351 110.348C284.631 112.602 288.812 105.418 289.572 103.532C289.651 103.337 289.722 103.123 290.047 103.126C290.41 103.131 290.425 103.532 290.425 103.532" fill="black"/>
<path d="M116.332 69.4005H112.301V101.175L116.441 101.281C124.933 101.281 130.403 100.511 130.403 85.2911C130.403 70.6967 125.575 69.4005 116.332 69.4005ZM113.609 109.616H102.202V60.9675H114.442C129.262 60.9675 140.503 63.6783 140.503 85.2911C140.503 106.697 128.596 109.616 113.609 109.616Z" fill="black"/>
<path d="M59.3546 59.0396C53.7067 53.413 48.3181 48.0493 46.7144 42C45.1106 48.0493 39.7211 53.413 34.0742 59.0396C25.6037 67.4767 16 77.039 16 91.3807C16 95.401 16.7945 99.3819 18.3381 103.096C19.8816 106.81 22.1441 110.185 24.9963 113.028C27.8485 115.871 31.2345 118.126 34.961 119.664C38.6876 121.203 42.6817 121.995 46.7153 121.995C50.7489 121.995 54.7429 121.203 58.4695 119.664C62.196 118.126 65.5821 115.871 68.4342 113.028C71.2864 110.185 73.5489 106.81 75.0925 103.096C76.6361 99.3819 77.4305 95.401 77.4305 91.3807C77.4305 77.0399 67.8276 67.4767 59.3546 59.0396ZM29.0549 98.5143C27.1716 98.4505 20.221 86.5097 33.1155 73.7957L41.6483 83.0856C41.7216 83.1577 41.7787 83.2444 41.8159 83.3401C41.8531 83.4358 41.8695 83.5383 41.8641 83.6407C41.8587 83.7432 41.8317 83.8434 41.7846 83.9347C41.7376 84.026 41.6718 84.1063 41.5914 84.1704C39.5552 86.2518 30.8767 94.9259 29.798 97.9252C29.5754 98.5443 29.2502 98.5209 29.0549 98.5143ZM46.7153 114.252C45.328 114.252 43.9544 113.98 42.6727 113.451C41.391 112.921 40.2265 112.146 39.2456 111.168C38.2646 110.19 37.4865 109.03 36.9556 107.752C36.4247 106.475 36.1515 105.106 36.1515 103.723C36.1905 101.17 37.1217 98.7106 38.7845 96.7684C40.6893 94.4469 46.7139 87.9174 46.7139 87.9174C46.7139 87.9174 52.6462 94.5427 54.629 96.7462C56.3563 98.6599 57.3017 101.149 57.2791 103.723C57.2791 106.515 56.1661 109.194 54.185 111.168C52.2039 113.143 49.517 114.252 46.7153 114.252ZM66.9343 97.1778C66.7067 97.674 66.1902 98.5026 65.4931 98.5279C64.2505 98.573 64.1177 97.9384 63.1993 96.5837C61.183 93.6096 43.5865 75.2799 40.2952 71.735C37.4002 68.6171 39.8876 66.4189 41.0414 65.267C42.4889 63.8216 46.7142 59.6128 46.7142 59.6128C46.7142 59.6128 59.3131 71.5272 64.5613 79.668C69.8095 87.8088 68.0008 94.8531 66.9343 97.1778Z" fill="black"/>
</svg>
