<svg width="325" height="163" viewBox="0 0 325 163" fill="none" xmlns="http://www.w3.org/2000/svg">
<path d="M198.045 72.3938H188.009L188.026 91.1095C188.026 96.5786 185.673 101.003 180.186 101.003C174.696 101.003 172.321 96.5786 172.321 91.1095V72.4115H162.312L162.309 91.1095C162.309 101.917 169.28 110.677 180.125 110.677C190.967 110.677 198.042 101.917 198.042 91.1095L198.045 72.3938Z" fill="black"/>
<path d="M298.525 60.9856H288.538V109.707H298.525V60.9856Z" fill="black"/>
<path d="M305.898 62.7804V61.0298H313.681V62.7804H310.834V70.4953H308.747V62.7804H305.898Z" fill="black"/>
<path d="M317.71 61.0305L319.931 67.5386H319.958L322.058 61.0305H325V70.4955H323.045V63.7874H323.017L320.69 70.4955H319.08L316.753 63.8539H316.726V70.4955H314.772V61.0305H317.71Z" fill="black"/>
<path d="M154.148 71.9886C145.54 70.0082 140.11 78.5323 139.884 78.9893C139.773 79.2137 139.769 79.3443 139.388 79.3347C139.073 79.328 139.038 78.9893 139.038 78.9893L137.969 72.4688H129.023V109.681H139.051V89.5386C139.051 87.8928 143.497 80.0012 152.114 82.0319C156.471 83.0602 158.32 84.9032 158.32 84.9032V73.5664C157.01 72.8491 155.606 72.318 154.148 71.9886Z" fill="black"/>
<path d="M221.374 81.4186C223.353 81.4182 225.288 82.0028 226.934 83.0986C228.579 84.1943 229.862 85.7519 230.62 87.5743C231.377 89.3968 231.576 91.4023 231.19 93.3371C230.804 95.2719 229.851 97.0492 228.451 98.4441C227.052 99.839 225.268 100.789 223.327 101.174C221.386 101.558 219.374 101.361 217.545 100.606C215.717 99.8505 214.154 98.5719 213.055 96.9315C211.955 95.2911 211.369 93.3626 211.369 91.3898C211.37 88.7455 212.424 86.2098 214.3 84.34C216.176 82.4702 218.72 81.4194 221.374 81.4186ZM211.653 121.939V108.55L211.656 108.552L211.659 103.537C211.659 103.537 211.674 103.136 212.037 103.132C212.36 103.128 212.432 103.342 212.511 103.537C213.272 105.424 217.453 112.607 226.733 110.354C230.273 109.359 233.464 107.399 235.948 104.694C238.431 101.99 240.109 98.6484 240.791 95.0457C241.473 91.443 241.133 87.722 239.809 84.3014C238.485 80.8807 236.23 77.896 233.297 75.6831C230.365 73.4702 226.87 72.1168 223.208 71.7752C219.546 71.4336 215.86 72.1172 212.566 73.7493C209.272 75.3814 206.501 77.8972 204.563 81.0136C202.626 84.1301 201.599 87.7236 201.598 91.3899V121.939L211.653 121.939Z" fill="black"/>
<path d="M274.716 91.3901C274.716 93.3627 274.13 95.2912 273.03 96.9316C271.931 98.5719 270.368 99.8506 268.54 100.606C266.711 101.361 264.699 101.559 262.758 101.174C260.817 100.789 259.034 99.8396 257.634 98.4448C256.235 97.05 255.282 95.2729 254.895 93.3382C254.509 91.4034 254.707 89.398 255.465 87.5755C256.222 85.753 257.505 84.1954 259.15 83.0995C260.796 82.0036 262.731 81.4187 264.71 81.4189C267.363 81.4194 269.908 82.4701 271.784 84.3399C273.66 86.2097 274.715 88.7456 274.716 91.3901ZM274.43 109.699H284.485V91.3901C284.485 87.7239 283.458 84.1305 281.521 81.0142C279.583 77.8978 276.812 75.3821 273.518 73.75C270.224 72.1179 266.539 71.4341 262.877 71.7756C259.215 72.1171 255.721 73.4703 252.788 75.6831C249.855 77.8958 247.6 80.8802 246.276 84.3007C244.952 87.7212 244.612 91.442 245.294 95.0446C245.976 98.6472 247.653 101.989 250.136 104.693C252.62 107.398 255.811 109.358 259.351 110.353C268.631 112.607 272.812 105.423 273.572 103.538C273.651 103.342 273.722 103.128 274.047 103.131C274.41 103.136 274.425 103.538 274.425 103.538" fill="black"/>
<path d="M100.332 69.4012H96.3008V101.176L100.441 101.282C108.933 101.282 114.403 100.512 114.403 85.2918C114.403 70.6974 109.575 69.4012 100.332 69.4012ZM97.6095 109.617H86.2024V60.9683H98.4419C113.262 60.9683 124.503 63.679 124.503 85.2918C124.503 106.698 112.596 109.617 97.6095 109.617Z" fill="black"/>
<path d="M43.3546 59.0432C37.7067 53.4166 32.3181 48.0529 30.7144 42.0037C29.1106 48.0529 23.7211 53.4166 18.0742 59.0432C9.60372 67.4804 0 77.0426 0 91.3844C-6.01051e-08 95.4046 0.794474 99.3855 2.33806 103.1C3.88165 106.814 6.14412 110.189 8.99629 113.032C11.8485 115.874 15.2345 118.129 18.961 119.668C22.6876 121.206 26.6817 121.998 30.7153 121.998C34.7489 121.998 38.7429 121.206 42.4695 119.668C46.196 118.129 49.5821 115.874 52.4342 113.032C55.2864 110.189 57.5489 106.814 59.0925 103.1C60.6361 99.3855 61.4305 95.4046 61.4305 91.3844C61.4305 77.0436 51.8276 67.4804 43.3546 59.0432ZM13.0549 98.5179C11.1716 98.4542 4.221 86.5133 17.1155 73.7993L25.6483 83.0892C25.7216 83.1613 25.7787 83.2481 25.8159 83.3438C25.8531 83.4395 25.8695 83.5419 25.8641 83.6444C25.8587 83.7469 25.8317 83.847 25.7846 83.9383C25.7376 84.0296 25.6718 84.11 25.5914 84.1741C23.5552 86.2555 14.8767 94.9296 13.798 97.9289C13.5754 98.548 13.2502 98.5246 13.0549 98.5179ZM30.7153 114.256C29.328 114.256 27.9544 113.983 26.6727 113.454C25.391 112.925 24.2265 112.149 23.2456 111.172C22.2646 110.194 21.4865 109.033 20.9556 107.756C20.4247 106.478 20.1515 105.109 20.1515 103.727C20.1905 101.174 21.1217 98.7142 22.7845 96.772C24.6893 94.4505 30.7139 87.9211 30.7139 87.9211C30.7139 87.9211 36.6462 94.5464 38.629 96.7499C40.3563 98.6636 41.3017 101.153 41.2791 103.727C41.2791 106.519 40.1661 109.197 38.185 111.172C36.2039 113.146 33.517 114.256 30.7153 114.256ZM50.9343 97.1814C50.7067 97.6777 50.1902 98.5062 49.4931 98.5315C48.2505 98.5766 48.1177 97.9421 47.1993 96.5873C45.183 93.6133 27.5865 75.2836 24.2952 71.7387C21.4002 68.6207 23.8876 66.4226 25.0414 65.2706C26.4889 63.8253 30.7142 59.6165 30.7142 59.6165C30.7142 59.6165 43.3131 71.5308 48.5613 79.6716C53.8095 87.8124 52.0008 94.8568 50.9343 97.1814Z" fill="black"/>
</svg>
