<svg width="341" height="163" viewBox="0 0 341 163" fill="none" xmlns="http://www.w3.org/2000/svg">
<mask id="mask0_37_14" style="mask-type:luminance" maskUnits="userSpaceOnUse" x="0" y="54" width="340" height="56">
<path d="M339.759 54.8235H0.961121V109.181H339.759V54.8235Z" fill="white"/>
</mask>
<g mask="url(#mask0_37_14)">
<path d="M215.392 79.4437C215.392 79.4437 212.466 80.1419 209.99 80.7311L206.228 81.5878C206.218 81.5878 206.203 81.5878 206.193 81.5878C206.193 80.5727 206.267 79.5031 206.51 78.5177C206.822 77.255 207.505 75.7794 208.693 75.1307C209.985 74.4275 211.56 74.3434 212.927 74.8881C214.343 75.4476 214.991 76.8143 215.268 78.2305C215.348 78.6266 215.397 79.0228 215.437 79.4239L215.392 79.4437ZM225.205 81.5878C225.205 71.7684 219.021 67.5496 211.119 67.5496C202.187 67.5496 196.593 73.7343 196.593 81.6373C196.593 90.2286 201.356 95.8239 211.609 95.8239C217.155 95.8239 220.294 94.8434 224.027 92.9768L222.606 86.5445C219.759 87.8221 217.11 88.6044 213.575 88.6044C209.698 88.6044 207.49 87.1338 206.653 84.3855H224.958C225.106 83.6477 225.205 82.8109 225.205 81.5878Z" fill="black"/>
<path d="M133.249 79.4437C133.249 79.4437 130.322 80.1419 127.847 80.7311L124.084 81.5878C124.074 81.5878 124.059 81.5878 124.049 81.5878C124.049 80.5727 124.124 79.5031 124.366 78.5177C124.678 77.255 125.362 75.7794 126.55 75.1307C127.842 74.4275 129.417 74.3434 130.783 74.8881C132.199 75.4476 132.848 76.8143 133.125 78.2305C133.204 78.6266 133.254 79.0228 133.293 79.4239L133.249 79.4437ZM143.062 81.5878C143.062 71.7684 136.878 67.5496 128.976 67.5496C120.044 67.5496 114.45 73.7343 114.45 81.6373C114.45 90.2286 119.212 95.8239 129.466 95.8239C135.011 95.8239 138.15 94.8434 141.883 92.9768L140.463 86.5445C137.615 87.8221 134.967 88.6044 131.431 88.6044C127.555 88.6044 125.347 87.1338 124.51 84.3855H142.814C142.963 83.6477 143.062 82.8109 143.062 81.5878Z" fill="black"/>
<path d="M110.607 60.3347H101.542V94.8386H110.607V60.3347Z" fill="black"/>
<path d="M227.116 68.4308H236.637L238.642 74.5314C239.895 71.5207 242.717 67.6484 247.723 67.6484C254.595 67.6484 258.323 71.1345 258.323 80.117V94.8433H248.802C248.802 91.7735 248.807 88.7083 248.812 85.6382C248.812 84.2319 248.787 82.8256 248.807 81.4193C248.821 80.1219 248.916 78.78 248.222 77.6164C247.752 76.829 246.985 76.2496 246.158 75.8535C244.48 75.0513 242.657 75.0712 241.009 75.9328C240.603 76.1457 238.642 77.2053 238.642 77.6956V94.8433H229.121V75.5564L227.116 68.4308Z" fill="black"/>
<path d="M265.522 75.3534H261.155V68.4308H265.522V64.103L275.043 61.8599V68.4308H284.613V75.3534H275.043V83.1078C275.043 86.1531 276.514 87.5743 278.722 87.5743C280.979 87.5743 282.256 87.2772 284.168 86.6434L285.297 93.8084C282.697 94.9376 279.459 95.4774 276.167 95.4774C269.245 95.4774 265.517 92.1891 265.517 85.8065V75.3534H265.522Z" fill="black"/>
<path d="M302.427 87.9655C305.913 87.9655 307.972 85.4599 307.972 81.4391C307.972 77.4183 306.012 75.1058 302.576 75.1058C299.09 75.1058 297.08 77.4133 297.08 81.5827C297.08 85.5144 299.041 87.9655 302.427 87.9655ZM302.527 67.4009C311.458 67.4009 317.984 72.9964 317.984 81.6818C317.984 90.4166 311.458 95.6703 302.427 95.6703C293.446 95.6703 287.064 90.273 287.064 81.6818C287.064 72.9964 293.397 67.4009 302.527 67.4009Z" fill="black"/>
<path d="M188.063 68.3518C186.379 67.6586 184.473 67.4011 182.651 67.6635C181.725 67.7972 180.819 68.0646 179.977 68.4806C177.67 69.6194 175.873 72.2191 174.907 74.5365C174.274 71.8675 172.427 69.4709 169.729 68.3567C168.045 67.6635 166.139 67.406 164.317 67.6685C163.391 67.8022 162.485 68.0695 161.643 68.4855C159.341 69.6194 157.549 72.2092 156.579 74.5217V74.3533L154.638 68.4409H145.117L147.122 75.5665V94.8485H156.579V77.6116C156.613 77.4828 157.034 77.2451 157.108 77.1907C158.217 76.4033 159.519 75.5913 160.906 75.4922C162.322 75.3882 163.718 76.1062 164.56 77.2303C164.649 77.3541 164.733 77.4779 164.812 77.6066C165.505 78.7703 165.411 80.1122 165.396 81.4095C165.382 82.8159 165.401 84.2221 165.401 85.6285C165.397 88.6985 165.391 91.7638 165.391 94.8336H174.913V80.1122C174.913 80.0379 174.913 79.9637 174.913 79.8943V77.6215C174.932 77.4977 175.368 77.2501 175.447 77.1956C176.556 76.4083 177.858 75.5962 179.245 75.4972C180.661 75.3932 182.057 76.1112 182.899 77.2352C182.988 77.359 183.072 77.4828 183.151 77.6116C183.844 78.7752 183.75 80.1172 183.735 81.4145C183.72 82.8208 183.74 84.2271 183.74 85.6334C183.735 88.7035 183.73 91.7685 183.73 94.8387H193.251V80.1122C193.251 75.7943 192.632 70.2335 188.063 68.3518Z" fill="black"/>
<path d="M340.501 67.6484C335.495 67.6484 332.678 71.5257 331.421 74.5314L329.415 68.4308H319.894L321.899 75.5564V94.8386H331.421V77.0221C332.777 76.7845 340.139 78.1412 341.536 78.6513V67.6831C341.199 67.6633 340.857 67.6484 340.501 67.6484Z" fill="black"/>
<path d="M87.8869 79.4437C87.8869 79.4437 84.9609 80.1419 82.4854 80.7311L78.7225 81.5878C78.7127 81.5878 78.6978 81.5878 78.688 81.5878C78.688 80.5727 78.7621 79.5031 79.0047 78.5177C79.3168 77.255 80.0001 75.7794 81.1882 75.1307C82.4803 74.4275 84.055 74.3434 85.4216 74.8881C86.8375 75.4476 87.4859 76.8143 87.7634 78.2305C87.8426 78.6266 87.892 79.0228 87.9316 79.4239L87.8869 79.4437ZM97.7001 81.5878C97.7001 71.7684 91.5162 67.5496 83.6144 67.5496C74.6824 67.5496 69.0876 73.7343 69.0876 81.6373C69.0876 90.2286 73.8506 95.8239 84.1044 95.8239C89.6498 95.8239 92.7886 94.8434 96.5217 92.9768L95.1007 86.5445C92.2539 87.8221 89.6051 88.6044 86.0699 88.6044C82.1934 88.6044 79.9852 87.1338 79.1482 84.3855H97.4524C97.6009 83.6477 97.7001 82.8109 97.7001 81.5878Z" fill="black"/>
<path d="M28.1574 54.8235C13.1358 54.8235 0.961121 66.9999 0.961121 82.0235C0.961121 97.0424 13.1358 109.224 28.1574 109.224C43.1789 109.224 55.3535 97.047 55.3535 82.0235C55.3489 66.9999 43.1742 54.8235 28.1574 54.8235ZM21.3596 93.3529H16.8293V70.6889H21.3596V93.3529ZM39.4855 93.3529H25.8898V88.8223H39.4855V93.3529ZM39.4855 84.2864H25.8898V79.7556H39.4855V84.2864ZM39.4855 75.2198H25.8898V70.6889H39.4855V75.2198Z" fill="black"/>
</g>
</svg>
