<svg width="201" height="163" viewBox="0 0 201 163" fill="none" xmlns="http://www.w3.org/2000/svg">
<g clip-path="url(#clip0_37_18)">
<path d="M18 73.0015H0V91.0015L18 109.002V91.0015H36L18 73.0015H36V55.0015H0L18 73.0015Z" fill="#231F20"/>
<path d="M63.37 96.8916H69.38V83.9416H83.7V78.9016H69.38V70.7716H84.77V65.6116H63.37V96.8916Z" fill="#231F20"/>
<path d="M98.17 74.5315C96.71 74.5315 95.55 74.8615 94.68 75.5215C93.81 76.1815 93.18 77.1615 92.77 78.4615H92.71V74.7215H87.17V96.8915H92.92V84.6115C92.92 83.4615 93.11 82.5115 93.5 81.7415C93.89 80.9815 94.41 80.4115 95.09 80.0315C95.77 79.6515 96.52 79.4615 97.36 79.4615C97.89 79.4615 98.4 79.4715 98.89 79.5015C99.38 79.5315 99.73 79.5615 99.94 79.5815V74.6015C99.72 74.5915 99.46 74.5715 99.16 74.5515C98.87 74.5315 98.54 74.5215 98.17 74.5215V74.5315Z" fill="#231F20"/>
<path d="M117.48 77.7915H117.42C116.97 77.0115 116.41 76.3615 115.74 75.8415C115.07 75.3215 114.32 74.9315 113.48 74.6615C112.65 74.3915 111.75 74.2615 110.78 74.2615C108.89 74.2615 107.22 74.7515 105.78 75.7215C104.34 76.6915 103.21 78.0415 102.41 79.7715C101.61 81.5015 101.2 83.5015 101.2 85.7815C101.2 88.0615 101.6 90.1115 102.4 91.8515C103.2 93.5915 104.32 94.9415 105.76 95.9015C107.2 96.8615 108.89 97.3515 110.82 97.3515C111.79 97.3515 112.69 97.2115 113.52 96.9215C114.35 96.6315 115.1 96.2115 115.77 95.6615C116.44 95.1115 116.98 94.4115 117.42 93.5715H117.5V96.8915H123.11V74.7215H117.48V77.7915ZM117.03 89.4015C116.57 90.4215 115.94 91.2115 115.12 91.7715C114.3 92.3315 113.34 92.6115 112.23 92.6115C111.19 92.6115 110.28 92.3415 109.5 91.8115C108.72 91.2815 108.11 90.5015 107.67 89.4915C107.24 88.4815 107.02 87.2415 107.02 85.7815C107.02 84.3215 107.24 83.0715 107.67 82.0615C108.1 81.0515 108.71 80.2815 109.5 79.7515C110.29 79.2215 111.19 78.9515 112.23 78.9515C113.34 78.9515 114.3 79.2315 115.12 79.7915C115.94 80.3515 116.58 81.1415 117.03 82.1615C117.49 83.1815 117.71 84.3915 117.71 85.7715C117.71 87.1515 117.48 88.3615 117.03 89.3815V89.4015Z" fill="#231F20"/>
<path d="M156.76 75.1915C155.64 74.5815 154.38 74.2815 152.98 74.2815C151.75 74.2815 150.62 74.5015 149.6 74.9315C148.58 75.3615 147.71 75.9815 147 76.7915C146.54 77.3115 146.18 77.8915 145.9 78.5215C145.52 77.3915 144.86 76.4615 143.91 75.7315C142.66 74.7615 141.19 74.2815 139.5 74.2815C138.46 74.2815 137.48 74.4715 136.54 74.8615C135.6 75.2415 134.78 75.8415 134.07 76.6315C133.56 77.2015 133.14 77.8815 132.8 78.6615V74.7215H127.26V96.8915H133.01V83.7215C133.01 82.7115 133.2 81.8615 133.58 81.1715C133.96 80.4815 134.47 79.9515 135.1 79.6015C135.74 79.2415 136.43 79.0615 137.19 79.0615C138.34 79.0615 139.27 79.4115 139.98 80.1215C140.69 80.8315 141.05 81.7815 141.05 82.9615V96.8815H146.61V83.4015C146.61 82.5515 146.78 81.7915 147.11 81.1315C147.44 80.4715 147.92 79.9615 148.53 79.6015C149.14 79.2415 149.87 79.0515 150.72 79.0515C151.8 79.0515 152.72 79.3815 153.49 80.0515C154.26 80.7115 154.64 81.7515 154.64 83.1715V96.8815H160.37V82.2215C160.37 80.5015 160.04 79.0515 159.39 77.8615C158.74 76.6815 157.85 75.7815 156.73 75.1715L156.76 75.1915Z" fill="#231F20"/>
<path d="M182.08 77.4314C181.14 76.4114 180 75.6214 178.69 75.0614C177.37 74.5014 175.9 74.2214 174.28 74.2214C172.18 74.2214 170.32 74.7214 168.71 75.7114C167.09 76.7014 165.83 78.0814 164.91 79.8314C163.99 81.5814 163.53 83.5814 163.53 85.8314C163.53 88.0814 163.98 90.0614 164.87 91.8014C165.77 93.5414 167.04 94.9114 168.68 95.9014C170.32 96.8914 172.26 97.3914 174.49 97.3914C176.25 97.3914 177.86 97.0714 179.32 96.4414C180.78 95.8114 181.98 94.9414 182.94 93.8314C183.9 92.7214 184.52 91.4314 184.8 89.9814H179.49C179.29 90.5714 178.98 91.0914 178.54 91.5414C178.1 91.9914 177.56 92.3514 176.9 92.6014C176.24 92.8514 175.49 92.9814 174.65 92.9814C173.47 92.9814 172.48 92.7314 171.66 92.2214C170.84 91.7214 170.21 91.0114 169.78 90.1014C169.39 89.2814 169.18 88.3314 169.14 87.2714H185.02V85.7214C185.02 84.0314 184.76 82.4814 184.25 81.0714C183.74 79.6614 183.01 78.4514 182.07 77.4314H182.08ZM169.19 83.4814C169.28 82.7014 169.47 81.9914 169.78 81.3714C170.21 80.5114 170.82 79.8414 171.61 79.3714C172.4 78.9014 173.33 78.6714 174.39 78.6714C175.45 78.6714 176.42 78.9014 177.2 79.3714C177.98 79.8414 178.59 80.5014 179.02 81.3714C179.33 81.9914 179.52 82.7014 179.61 83.4814H169.2H169.19Z" fill="#231F20"/>
<path d="M200.09 74.5615C199.8 74.5415 199.47 74.5315 199.1 74.5315C197.64 74.5315 196.48 74.8615 195.61 75.5215C194.74 76.1815 194.11 77.1615 193.7 78.4615H193.64V74.7215H188.1V96.8915H193.85V84.6115C193.85 83.4615 194.04 82.5115 194.43 81.7415C194.81 80.9815 195.34 80.4115 196.01 80.0315C196.68 79.6515 197.44 79.4615 198.28 79.4615C198.81 79.4615 199.32 79.4715 199.81 79.5015C200.3 79.5315 200.65 79.5615 200.86 79.5815V74.6015C200.64 74.5915 200.38 74.5715 200.08 74.5515L200.09 74.5615Z" fill="#231F20"/>
</g>
<defs>
<clipPath id="clip0_37_18">
<rect width="200.87" height="54.0001" fill="white" transform="translate(0 55.0015)"/>
</clipPath>
</defs>
</svg>
