<svg width="142" height="163" viewBox="0 0 142 163" fill="none" xmlns="http://www.w3.org/2000/svg">
<g clip-path="url(#clip0_37_6)">
<path d="M142 11.9983H0V153.998H142V11.9983Z" fill="black"/>
<path d="M95.388 122.936C98.2483 127.607 101.97 131.039 108.551 131.039C114.08 131.039 117.612 128.276 117.612 124.458C117.612 119.882 113.983 118.262 107.897 115.6L104.562 114.168C94.9327 110.066 88.5359 104.927 88.5359 94.063C88.5359 84.0554 96.1611 76.437 108.078 76.437C116.562 76.437 122.661 79.3897 127.056 87.1208L116.665 93.7926C114.378 89.6904 111.91 88.0742 108.078 88.0742C104.169 88.0742 101.692 90.5536 101.692 93.7926C101.692 97.7956 104.172 99.4162 109.897 101.896L113.233 103.325C124.57 108.186 130.971 113.143 130.971 124.287C130.971 136.3 121.534 142.882 108.86 142.882C96.4676 142.882 88.4615 136.976 84.5441 129.236L95.388 122.936ZM48.2507 124.093C50.3469 127.812 52.2538 130.956 56.8383 130.956C61.2223 130.956 63.9879 129.241 63.9879 122.571V77.1988H77.3314V122.752C77.3314 136.568 69.2307 142.857 57.4063 142.857C46.7225 142.857 40.5354 137.328 37.3889 130.669L48.2507 124.093Z" fill="white"/>
</g>
<defs>
<clipPath id="clip0_37_6">
<rect width="142" height="142" fill="white" transform="translate(0 11.9983)"/>
</clipPath>
</defs>
</svg>
