<svg width="307" height="163" viewBox="0 0 307 163" fill="none" xmlns="http://www.w3.org/2000/svg">
<path d="M282.483 68.7549C281.738 68.7549 281.014 68.9092 280.372 69.2731L260.085 81.0241C258.772 81.7825 257.974 83.2158 257.974 84.7398V108.2C257.974 109.723 258.772 111.154 260.085 111.915L265.383 114.977C267.958 116.25 268.907 116.23 270.079 116.23C273.89 116.23 276.065 113.91 276.065 109.879V86.734C276.065 86.4067 275.783 86.1725 275.462 86.1725H272.921C272.595 86.1725 272.318 86.4127 272.318 86.734V109.891C272.318 111.678 270.462 113.476 267.451 111.965L261.943 108.725C261.749 108.618 261.599 108.424 261.599 108.207V84.7464C261.599 84.5243 261.747 84.2973 261.943 84.185L282.188 72.476C282.378 72.3667 282.604 72.3667 282.791 72.476L303.036 84.185C303.228 84.3009 303.381 84.517 303.381 84.7464V108.207C303.381 108.43 303.269 108.66 303.079 108.768L282.792 120.477C282.612 120.581 282.373 120.581 282.189 120.477L276.977 117.367C276.821 117.275 276.61 117.283 276.46 117.367C275.022 118.184 274.751 118.279 273.402 118.749C273.07 118.865 272.564 119.045 273.575 119.614L280.38 123.637C281.028 124.013 281.75 124.198 282.491 124.198C283.242 124.198 283.954 124.018 284.602 123.637L304.889 111.928C306.202 111.161 307 109.736 307 108.213V84.7524C307 83.2284 306.202 81.7981 304.889 81.0368L284.602 69.2857C283.966 68.9218 283.237 68.7675 282.491 68.7675L282.483 68.7549ZM287.911 85.5186C282.134 85.5186 278.693 87.9847 278.693 92.0853C278.693 96.5287 282.108 97.7561 287.653 98.3061C294.286 98.9576 294.803 99.9345 294.803 101.244C294.803 103.516 292.997 104.484 288.73 104.484C283.368 104.484 282.189 103.142 281.795 100.461C281.748 100.174 281.528 99.9429 281.235 99.9429H278.601C278.442 99.9465 278.291 100.011 278.179 100.124C278.066 100.237 278.002 100.388 277.998 100.548C277.998 103.972 279.855 108.022 288.724 108.022C295.143 108.022 298.846 105.5 298.846 101.066C298.846 96.6824 295.855 95.4977 289.628 94.6709C283.342 93.8302 282.737 93.4279 282.737 91.949C282.737 90.7288 283.245 89.0968 287.905 89.0968C292.068 89.0968 293.606 89.9975 294.237 92.8124C294.292 93.0767 294.525 93.2928 294.797 93.2928H297.431C297.593 93.2928 297.75 93.1931 297.862 93.0767C297.972 92.9524 298.05 92.8124 298.035 92.6443C297.627 87.7962 294.404 85.5156 287.912 85.5156L287.911 85.5186Z" fill="black"/>
<path d="M163.213 38.0008C162.987 38.0012 162.764 38.0608 162.567 38.1737C162.372 38.2886 162.209 38.4526 162.096 38.6496C161.983 38.8466 161.922 39.0698 161.921 39.2972V72.3479C161.921 72.6721 161.771 72.9628 161.49 73.1255C161.353 73.2058 161.197 73.2481 161.038 73.2481C160.879 73.2481 160.723 73.2058 160.586 73.1255L155.201 70.0151C154.809 69.7872 154.363 69.6671 153.909 69.6671C153.456 69.6671 153.01 69.7872 152.617 70.0151L131.124 82.4573C130.321 82.922 129.831 83.8167 129.831 84.7469V109.632C129.83 110.087 129.95 110.535 130.177 110.929C130.403 111.324 130.73 111.651 131.124 111.878L152.617 124.321C153.01 124.55 153.455 124.67 153.909 124.67C154.363 124.67 154.809 124.55 155.201 124.321L176.695 111.878C177.088 111.651 177.415 111.324 177.642 110.929C177.869 110.535 177.988 110.087 177.987 109.632V47.592C177.987 46.6481 177.474 45.7624 176.652 45.3024L163.86 38.1299C163.659 38.0176 163.436 37.9984 163.213 38.0008ZM24.948 69.064C24.5379 69.0808 24.153 69.1522 23.7848 69.3666L2.29191 81.8088C1.89818 82.0357 1.57129 82.363 1.3444 82.7575C1.11751 83.152 0.998694 83.5997 1.00001 84.0551L1.04371 117.452C1.04371 117.917 1.28317 118.348 1.69026 118.575C2.08956 118.815 2.58465 118.815 2.98216 118.575L15.7317 111.23C16.5399 110.75 17.0667 109.912 17.0667 108.985V93.3875C17.0667 92.4568 17.5546 91.6041 18.3598 91.1418L23.7872 87.9882C24.1794 87.7594 24.6254 87.64 25.0791 87.6423C25.533 87.6396 25.9793 87.759 26.3716 87.9882L31.7966 91.14C32.6006 91.6023 33.0885 92.4562 33.0885 93.3857V108.982C33.0885 109.91 33.6273 110.754 34.4235 111.228L47.1731 118.573C47.5742 118.813 48.068 118.813 48.4649 118.573C48.8601 118.345 49.1115 117.914 49.1115 117.45L49.1546 84.0539C49.1571 83.5982 49.0389 83.1501 48.8118 82.7553C48.5848 82.3606 48.2573 82.0335 47.8627 81.8076L26.3698 69.366C26.0064 69.1522 25.6197 69.0802 25.2066 69.0634H24.9492L24.948 69.064ZM218.088 69.3666C217.635 69.3653 217.189 69.4847 216.796 69.7125L195.302 82.1553C194.5 82.6206 194.009 83.4715 194.009 84.401V109.286C194.009 110.222 194.535 111.069 195.344 111.532L216.665 123.721C217.453 124.171 218.413 124.206 219.207 123.763L232.129 116.548C232.539 116.32 232.816 115.893 232.817 115.425C232.818 114.957 232.576 114.535 232.171 114.302L210.547 101.859C210.142 101.628 209.859 101.159 209.859 100.693V92.9114C209.859 92.4466 210.146 92.0203 210.547 91.7885L217.266 87.8999C217.666 87.6681 218.157 87.6681 218.559 87.8999L225.282 91.7885C225.479 91.9019 225.642 92.0655 225.755 92.2627C225.869 92.4599 225.928 92.6837 225.928 92.9114V99.0463C225.927 99.274 225.987 99.4977 226.1 99.6949C226.213 99.8921 226.377 100.056 226.574 100.169C226.977 100.402 227.464 100.403 227.867 100.169L240.745 92.6532C241.544 92.1872 242.038 91.3339 242.038 90.4074V84.4028C242.038 83.9475 241.919 83.5003 241.692 83.106C241.465 82.7117 241.139 82.3842 240.746 82.1565L219.381 69.7137C218.989 69.4856 218.543 69.3662 218.089 69.3678L218.088 69.3666ZM153.823 87.9449C153.943 87.9444 154.062 87.9739 154.168 88.0308L161.533 92.3079C161.733 92.4238 161.878 92.6381 161.878 92.8693V101.424C161.878 101.656 161.734 101.87 161.533 101.985L154.168 106.262C153.967 106.376 153.722 106.376 153.521 106.262L146.156 101.985C145.955 101.869 145.811 101.655 145.811 101.424V92.8681C145.811 92.6363 145.956 92.4238 146.156 92.3067L153.521 88.0302C153.622 87.9719 153.71 87.9449 153.823 87.9449Z" fill="black"/>
<path d="M89.5237 71.7356L89.5491 71.7424L89.5569 71.7473L111.05 84.1467C111.038 84.1399 111.049 84.1419 111.066 84.1711C111.083 84.2023 111.093 84.2398 111.093 84.2708V109.159C111.093 109.176 111.088 109.193 111.08 109.206L111.05 109.238L111.047 109.239L89.554 121.681L89.5491 121.684C89.5382 121.69 89.5256 121.694 89.514 121.694L89.4798 121.684L89.4749 121.681L67.9818 109.239L67.9769 109.236L67.9485 109.207L67.9368 109.163V84.2708C67.9369 84.2409 67.9463 84.2041 67.9642 84.1721C67.9813 84.1416 67.9927 84.1388 67.9808 84.1458L67.9798 84.1448L89.472 71.7473L89.4739 71.7463C89.4857 71.7396 89.4985 71.7366 89.511 71.7366L89.5228 71.637L89.5237 71.7356ZM220.155 95.4885V97.925L218.024 99.1497L215.895 97.926V95.4895L218.025 94.2424L220.155 95.4885Z" fill="white" stroke="black" stroke-width="5"/>
</svg>
