<svg width="215" height="163" viewBox="0 0 215 163" fill="none" xmlns="http://www.w3.org/2000/svg">
<g clip-path="url(#clip0_37_12)">
<mask id="mask0_37_12" style="mask-type:luminance" maskUnits="userSpaceOnUse" x="3" y="29" width="209" height="110">
<path d="M3.02307 84.0052C3.02307 114.367 49.7999 138.981 107.5 138.981C165.2 138.981 211.977 114.367 211.977 84.0052C211.977 53.6435 165.2 29.0293 107.5 29.0293C49.7999 29.0293 3.02307 53.6435 3.02307 84.0052Z" fill="white"/>
</mask>
<g mask="url(#mask0_37_12)">
<path d="M3.02307 84.0052C3.02307 114.367 49.7999 138.981 107.5 138.981C165.2 138.981 211.977 114.367 211.977 84.0052C211.977 53.6435 165.2 29.0293 107.5 29.0293C49.7999 29.0293 3.02307 53.6435 3.02307 84.0052Z" fill="black"/>
</g>
<mask id="mask1_37_12" style="mask-type:luminance" maskUnits="userSpaceOnUse" x="-2" y="22" width="219" height="124">
<path d="M-1.33014 22.7691H216.33V145.241H-1.33014V22.7691Z" fill="white"/>
</mask>
<g mask="url(#mask1_37_12)">
<path d="M107.5 134.899C162.946 134.899 207.895 112.113 207.895 84.005C207.895 55.8972 162.946 33.1105 107.5 33.1105C52.0536 33.1105 7.10419 55.8972 7.10419 84.005C7.10419 112.113 52.0536 134.899 107.5 134.899Z" fill="black"/>
</g>
<mask id="mask2_37_12" style="mask-type:luminance" maskUnits="userSpaceOnUse" x="-2" y="22" width="219" height="124">
<path d="M-1.33014 22.7691H216.33V145.241H-1.33014V22.7691Z" fill="white"/>
</mask>
<g mask="url(#mask2_37_12)">
<path d="M59.7864 90.3152C64.3455 90.3152 67.7491 89.4742 69.9027 87.8163C72.0332 86.1754 73.5046 83.3324 74.2759 79.3668C74.995 75.6601 74.721 73.072 73.4619 71.6752C72.1745 70.2487 69.391 69.5252 65.189 69.5252H57.903L53.8638 90.3152H59.7864ZM35.956 115.925C35.6178 115.925 35.2966 115.774 35.0816 115.512C34.8662 115.251 34.7789 114.907 34.8435 114.575L45.5482 59.4806C45.6517 58.948 46.1184 58.5631 46.661 58.5631H69.7322C76.983 58.5631 82.3799 60.5325 85.7722 64.4172C89.1826 68.3224 90.2357 73.7811 88.9022 80.6414C88.3595 83.4364 87.4262 86.0321 86.1281 88.3561C84.8286 90.6827 83.1111 92.8354 81.0226 94.7556C78.5225 97.0962 75.6929 98.7934 72.62 99.7921C69.5958 100.778 65.712 101.277 61.0765 101.277H51.7345L49.0666 115.007C48.9631 115.54 48.4968 115.925 47.9542 115.925H35.956Z" fill="black"/>
<path d="M58.8376 70.6591H65.189C70.2606 70.6591 72.0222 71.7723 72.6208 72.4357C73.6139 73.5371 73.8013 75.8596 73.1631 79.1516C72.4459 82.8371 71.1165 85.4502 69.2112 86.9176C67.2606 88.4198 64.0894 89.1811 59.7864 89.1811H55.239L58.8376 70.6591ZM69.7323 57.429H46.6607C45.5754 57.429 44.6424 58.1987 44.4354 59.2642L33.7307 114.358C33.6015 115.023 33.7761 115.711 34.2065 116.233C34.6373 116.756 35.2789 117.059 35.9561 117.059H47.9538C49.0395 117.059 49.9725 116.289 50.1795 115.223L52.669 102.411H61.0765C65.831 102.411 69.8336 101.892 72.9719 100.87C76.1994 99.821 79.1687 98.0425 81.7969 95.584C83.9705 93.5836 85.7609 91.3383 87.1175 88.9097C88.4745 86.4803 89.4494 83.7711 90.0151 80.8575C91.4189 73.6362 90.2785 67.8535 86.6259 63.6713C83.0088 59.5292 77.3247 57.429 69.7323 57.429ZM52.4884 91.4491H59.7864C64.6237 91.4491 68.2268 90.5377 70.5942 88.7146C72.962 86.8911 74.559 83.8479 75.3888 79.5833C76.1827 75.4888 75.8211 72.5993 74.3039 70.9161C72.7848 69.2329 69.747 68.3911 65.189 68.3911H56.9686L52.4884 91.4491ZM69.7323 59.697C76.6728 59.697 81.7361 61.519 84.9186 65.1633C88.1007 68.8076 89.059 73.8944 87.7894 80.4251C87.2668 83.1153 86.3829 85.5749 85.1385 87.8033C83.8926 90.0331 82.2659 92.072 80.2555 93.9208C77.8598 96.1635 75.1983 97.7617 72.2698 98.7135C69.3412 99.6679 65.6111 100.143 61.0765 100.143H50.7997L47.9538 114.791H35.9561L46.6607 59.697H69.7323Z" fill="white"/>
<path d="M116.411 101.277C116.073 101.277 115.752 101.126 115.537 100.865C115.321 100.603 115.234 100.26 115.299 99.9271L120.034 75.5502C120.484 73.2319 120.373 71.568 119.721 70.8649C119.322 70.4351 118.124 69.7143 114.579 69.7143H106.001L100.047 100.36C99.9437 100.893 99.477 101.277 98.9344 101.277H87.0311C86.6925 101.277 86.3717 101.126 86.1563 100.865C85.9409 100.603 85.8536 100.259 85.9182 99.9271L96.6229 44.8331C96.7264 44.3005 97.1931 43.9157 97.7357 43.9157H109.639C109.978 43.9157 110.298 44.0669 110.514 44.3281C110.729 44.5897 110.817 44.9333 110.752 45.2659L108.169 58.5632H117.397C124.428 58.5632 129.195 59.8031 131.972 62.3538C134.802 64.956 135.685 69.1166 134.597 74.7216L129.617 100.36C129.513 100.893 129.047 101.277 128.504 101.277H116.411Z" fill="black"/>
<path d="M109.639 42.7816H97.7358C96.6501 42.7816 95.7171 43.5512 95.5101 44.6168L84.8054 99.7107C84.6762 100.376 84.8508 101.063 85.2816 101.586C85.7123 102.109 86.354 102.411 87.0312 102.411H98.9344C100.02 102.411 100.953 101.642 101.16 100.576L106.935 70.8481H114.579C118.118 70.8481 118.86 71.6041 118.89 71.6366C119.105 71.8676 119.387 72.9373 118.921 75.3338L114.186 99.7107C114.057 100.376 114.231 101.063 114.662 101.586C115.093 102.109 115.734 102.411 116.411 102.411H128.504C129.589 102.411 130.522 101.642 130.729 100.576L135.71 74.9381C136.878 68.9199 135.878 64.4055 132.739 61.5191C129.743 58.7668 124.725 57.4291 117.397 57.4291H109.543L111.865 45.4824C111.994 44.8175 111.819 44.1295 111.389 43.6071C110.958 43.0844 110.316 42.7816 109.639 42.7816ZM109.639 45.0496L106.793 59.6971H117.397C124.07 59.6971 128.672 60.8621 131.205 63.1891C133.738 65.5175 134.497 69.2904 133.484 74.5056L128.504 100.143H116.411L121.147 75.7666C121.686 72.9936 121.488 71.1021 120.552 70.0936C119.616 69.0851 117.625 68.5801 114.579 68.5801H105.066L98.9344 100.143H87.0312L97.7358 45.0496H109.639Z" fill="white"/>
<path d="M153.431 90.3152C157.99 90.3152 161.394 89.4742 163.548 87.8163C165.678 86.1757 167.15 83.3328 167.921 79.3668C168.64 75.6601 168.366 73.072 167.107 71.6752C165.819 70.2487 163.036 69.5252 158.834 69.5252H151.548L147.509 90.3152H153.431ZM129.601 115.925C129.263 115.925 128.942 115.774 128.727 115.512C128.512 115.251 128.424 114.907 128.488 114.575L139.193 59.4806C139.297 58.948 139.763 58.5631 140.306 58.5631H163.377C170.628 58.5631 176.025 60.5325 179.417 64.4172C182.828 68.322 183.881 73.7807 182.547 80.6414C182.004 83.4364 181.071 86.0321 179.773 88.3561C178.474 90.6827 176.756 92.8354 174.668 94.7556C172.167 97.0962 169.338 98.7934 166.265 99.7921C163.241 100.778 159.357 101.277 154.721 101.277H145.379L142.712 115.007C142.608 115.54 142.142 115.925 141.599 115.925H129.601Z" fill="black"/>
<path d="M152.483 70.6591H158.834C163.906 70.6591 165.667 71.7723 166.266 72.4357C167.259 73.5371 167.447 75.8596 166.808 79.1512C166.091 82.8371 164.761 85.4502 162.856 86.9176C160.906 88.4198 157.734 89.1811 153.431 89.1811H148.884L152.483 70.6591ZM163.377 57.429H140.306C139.221 57.429 138.288 58.1987 138.081 59.2642L127.376 114.358C127.247 115.023 127.421 115.711 127.852 116.233C128.283 116.756 128.924 117.059 129.601 117.059H141.599C142.684 117.059 143.618 116.289 143.825 115.223L146.314 102.411H154.721C159.476 102.411 163.478 101.892 166.617 100.87C169.844 99.821 172.814 98.0422 175.443 95.5833C177.616 93.5833 179.406 91.3383 180.762 88.9097C182.119 86.4803 183.094 83.7711 183.66 80.8575C185.064 73.6358 183.923 67.8532 180.271 63.671C176.654 59.5292 170.97 57.429 163.377 57.429ZM146.134 91.4491H153.431C158.269 91.4491 161.872 90.5377 164.239 88.7146C166.607 86.8911 168.204 83.8479 169.034 79.5833C169.828 75.4888 169.466 72.5993 167.949 70.9161C166.43 69.2329 163.392 68.3911 158.834 68.3911H150.614L146.134 91.4491ZM163.377 59.697C170.318 59.697 175.381 61.519 178.564 65.1633C181.746 68.8076 182.704 73.8944 181.434 80.4251C180.912 83.1153 180.028 85.5749 178.783 87.8033C177.538 90.0331 175.911 92.072 173.9 93.9208C171.505 96.1635 168.843 97.7617 165.915 98.7135C162.986 99.6679 159.256 100.143 154.721 100.143H144.445L141.599 114.791H129.601L140.306 59.697H163.377Z" fill="white"/>
</g>
</g>
<defs>
<clipPath id="clip0_37_12">
<rect width="215" height="116" fill="white" transform="translate(0 26.0051)"/>
</clipPath>
</defs>
</svg>
