<svg width="123" height="163" viewBox="0 0 123 163" fill="none" xmlns="http://www.w3.org/2000/svg">
<path d="M123 84.0099C123 75.8707 112.796 68.1573 97.1515 63.3739C100.762 47.4462 99.1572 34.7741 92.087 30.717C90.4574 29.7654 88.552 29.3146 86.4711 29.3146V34.8993C87.6243 34.8993 88.552 35.1247 89.3292 35.5505C92.7389 37.5039 94.2181 44.9418 93.0648 54.5085C92.789 56.8626 92.3378 59.3419 91.7862 61.8713C86.8722 60.6692 81.5069 59.7426 75.8659 59.1416C72.4812 54.5085 68.9713 50.3012 65.4362 46.6197C73.6095 39.0315 81.2813 34.8743 86.4961 34.8743V29.2896C79.6015 29.2896 70.5758 34.1981 61.4499 42.7129C52.3239 34.2482 43.2982 29.3897 36.4036 29.3897V34.9745C41.5934 34.9745 49.2903 39.1067 57.4635 46.6448C53.9535 50.3262 50.4435 54.5085 47.1091 59.1416C41.4429 59.7426 36.0777 60.6692 31.1637 61.8964C30.587 59.392 30.1608 56.9628 29.86 54.6337C28.6816 45.067 30.1358 37.6291 33.5204 35.6506C34.2725 35.1999 35.2503 34.9995 36.4036 34.9995V29.4148C34.2976 29.4148 32.3922 29.8656 30.7375 30.8172C23.6924 34.8743 22.1129 47.5213 25.7483 63.399C10.1539 68.2074 0 75.8958 0 84.0099C0 92.1491 10.204 99.8625 25.8486 104.646C22.2383 120.574 23.8428 133.246 30.913 137.303C32.5426 138.254 34.448 138.705 36.554 138.705C43.4486 138.705 52.4743 133.797 61.6003 125.282C70.7263 133.747 79.7519 138.605 86.6466 138.605C88.7526 138.605 90.658 138.154 92.3127 137.203C99.3577 133.146 100.937 120.498 97.3019 104.621C112.846 99.8375 123 92.124 123 84.0099ZM90.3571 67.3058C89.4295 70.5364 88.2762 73.8672 86.9725 77.198C85.9446 75.1945 84.8665 73.1911 83.6881 71.1876C82.5349 69.1841 81.3064 67.2307 80.0779 65.3273C83.638 65.8533 87.0728 66.5044 90.3571 67.3058ZM78.8744 93.9773C76.9189 97.3582 74.9132 100.564 72.8323 103.544C69.0966 103.87 65.3109 104.045 61.5 104.045C57.7142 104.045 53.9285 103.87 50.2179 103.569C48.137 100.589 46.1062 97.4083 44.1506 94.0524C42.2452 90.7717 40.5153 87.4409 38.9358 84.085C40.4902 80.7292 42.2452 77.3733 44.1256 74.0926C46.0811 70.7117 48.0868 67.5061 50.1678 64.526C53.9034 64.2004 57.6892 64.0251 61.5 64.0251C65.2858 64.0251 69.0715 64.2004 72.7821 64.5009C74.863 67.4811 76.8938 70.6616 78.8494 74.0175C80.7548 77.2982 82.4847 80.629 84.0642 83.9849C82.4847 87.3407 80.7548 90.6966 78.8744 93.9773ZM86.9725 90.7216C88.3263 94.0774 89.4796 97.4333 90.4323 100.689C87.148 101.49 83.6881 102.167 80.1029 102.692C81.3314 100.764 82.5599 98.7856 83.7132 96.7571C84.8665 94.7536 85.9446 92.7251 86.9725 90.7216ZM61.5502 117.443C59.2185 115.039 56.8869 112.359 54.5803 109.429C56.8367 109.529 59.1433 109.605 61.4749 109.605C63.8316 109.605 66.1633 109.554 68.4448 109.429C66.1883 112.359 63.8567 115.039 61.5502 117.443ZM42.8971 102.692C39.3369 102.167 35.9022 101.515 32.6178 100.714C33.5455 97.4834 34.6987 94.1526 36.0024 90.8218C37.0304 92.8253 38.1084 94.8288 39.2868 96.8322C40.4651 98.8357 41.6686 100.789 42.8971 102.692ZM61.4248 50.5766C63.7564 52.9808 66.0881 55.6605 68.3946 58.5906C66.1382 58.4904 63.8316 58.4153 61.5 58.4153C59.1433 58.4153 56.8117 58.4654 54.5302 58.5906C56.7866 55.6605 59.1182 52.9808 61.4248 50.5766ZM42.872 65.3273C41.6435 67.2557 40.415 69.2342 39.2617 71.2627C38.1084 73.2662 37.0304 75.2697 36.0024 77.2732C34.6486 73.9173 33.4953 70.5615 32.5426 67.3058C35.827 66.5294 39.2868 65.8533 42.872 65.3273ZM20.1824 96.682C11.3072 92.9004 5.56584 87.9418 5.56584 84.0099C5.56584 80.0781 11.3072 75.0944 20.1824 71.3378C22.3386 70.4112 24.6953 69.5848 27.1272 68.8084C28.5563 73.717 30.4366 78.8259 32.7682 84.06C30.4617 89.2691 28.6064 94.3529 27.2024 99.2364C24.7203 98.4601 22.3636 97.6086 20.1824 96.682ZM33.6708 132.469C30.2611 130.516 28.7819 123.078 29.9352 113.511C30.211 111.157 30.6623 108.678 31.2138 106.148C36.1278 107.351 41.4931 108.277 47.1341 108.878C50.5188 113.511 54.0287 117.719 57.5638 121.4C49.3905 128.988 41.7187 133.146 36.5039 133.146C35.3757 133.12 34.423 132.895 33.6708 132.469ZM93.14 113.386C94.3184 122.953 92.8642 130.391 89.4796 132.369C88.7275 132.82 87.7497 133.02 86.5964 133.02C81.4066 133.02 73.7098 128.888 65.5365 121.35C69.0465 117.669 72.5565 113.486 75.891 108.853C81.5571 108.252 86.9223 107.326 91.8363 106.098C92.413 108.628 92.8643 111.057 93.14 113.386ZM102.793 96.682C100.636 97.6086 98.2797 98.435 95.8477 99.2114C94.4187 94.3028 92.5383 89.1939 90.2067 83.9598C92.5133 78.7507 94.3685 73.6669 95.7725 68.7834C98.2546 69.5597 100.611 70.4112 102.818 71.3378C111.693 75.1194 117.434 80.0781 117.434 84.0099C117.409 87.9418 111.668 92.9254 102.793 96.682Z" fill="black"/>
<path d="M61.4749 95.4548C67.8028 95.4548 72.9325 90.3307 72.9325 84.0099C72.9325 77.689 67.8028 72.5649 61.4749 72.5649C55.1471 72.5649 50.0173 77.689 50.0173 84.0099C50.0173 90.3307 55.1471 95.4548 61.4749 95.4548Z" fill="black"/>
</svg>
