<svg width="219" height="163" viewBox="0 0 219 163" fill="none" xmlns="http://www.w3.org/2000/svg">
<g clip-path="url(#clip0_24_7)">
<path d="M166.964 90.3975C161.455 90.4265 156.667 91.7597 152.658 93.7305C151.187 90.8033 149.716 88.1949 149.457 86.2821C149.168 84.0505 148.822 82.6883 149.168 80.022C149.514 77.3557 151.072 73.559 151.043 73.2692C151.014 72.9794 150.697 71.6172 147.524 71.5882C144.352 71.5593 141.612 72.1969 141.294 73.0373C140.977 73.8778 140.371 75.7906 139.967 77.7614C139.419 80.6596 133.622 91.0062 130.305 96.4258C129.238 94.3101 128.315 92.4553 128.113 90.9772C127.825 88.7456 127.479 87.3834 127.825 84.7171C128.171 82.0507 129.728 78.2541 129.7 77.9643C129.671 77.6745 129.353 76.3123 126.181 76.2833C123.008 76.2543 120.268 76.8919 119.951 77.7324C119.633 78.5729 119.287 80.5437 118.624 82.4565C117.961 84.3693 110.26 101.643 108.241 106.106C107.202 108.395 106.308 110.221 105.674 111.467C105.674 111.467 105.645 111.554 105.558 111.699C105.01 112.772 104.693 113.351 104.693 113.351C104.693 113.351 104.693 113.351 104.693 113.38C104.26 114.163 103.799 114.887 103.568 114.887C103.395 114.887 103.078 112.801 103.626 109.96C104.779 103.961 107.52 94.6289 107.491 94.3101C107.491 94.1362 108.01 92.5132 105.702 91.6728C103.453 90.8323 102.645 92.2234 102.443 92.2234C102.241 92.2234 102.097 92.7161 102.097 92.7161C102.097 92.7161 104.606 82.2246 97.3092 82.2246C92.7521 82.2246 86.4644 87.2385 83.3494 91.7597C81.3881 92.832 77.2059 95.1216 72.7353 97.5851C71.0336 98.5415 69.2742 99.4979 67.6301 100.396C67.5148 100.28 67.3994 100.135 67.284 100.02C58.4582 90.5425 42.1333 83.8476 42.8255 71.1245C43.0851 66.4874 44.6714 54.315 74.1774 39.5342C98.4629 27.5067 117.788 30.8396 121.133 38.23C125.921 48.7794 110.779 68.3712 85.6856 71.2115C76.1099 72.2838 71.0913 68.5741 69.8222 67.183C68.4954 65.7339 68.2935 65.6469 67.8032 65.9368C66.9956 66.3715 67.5148 67.6757 67.8032 68.4292C68.5531 70.4 71.6393 73.8778 76.8598 75.5878C81.4746 77.0948 92.6944 77.9353 106.279 72.6606C121.479 66.7483 133.363 50.3155 129.873 36.549C126.383 22.5797 103.308 17.9716 81.4746 25.7677C68.4954 30.4048 54.4202 37.7083 44.2965 47.2144C32.2691 58.5174 30.3655 68.3423 31.1442 72.4577C33.9419 87.0646 53.9876 96.5707 62.0058 103.613C61.602 103.845 61.2271 104.048 60.9098 104.222C56.9007 106.222 41.6141 114.25 37.8069 122.741C33.4805 132.363 38.4991 139.261 41.816 140.189C52.1128 143.058 62.6981 137.899 68.3801 129.378C74.0621 120.858 73.3698 109.786 70.7452 104.715C70.7163 104.657 70.6875 104.599 70.6298 104.541C71.6681 103.932 72.7353 103.295 73.7736 102.686C75.8215 101.469 77.8404 100.338 79.571 99.4109C78.5904 102.106 77.8693 105.323 77.5232 109.96C77.0905 115.409 79.3114 122.481 82.2245 125.263C83.5224 126.48 85.0511 126.509 86.0318 126.509C89.4352 126.509 90.9638 123.669 92.6656 120.307C94.7422 116.192 96.617 111.409 96.617 111.409C96.617 111.409 94.2808 124.335 100.626 124.335C102.934 124.335 105.27 121.321 106.308 119.785C106.308 119.814 106.308 119.814 106.308 119.814C106.308 119.814 106.366 119.727 106.481 119.524C106.712 119.148 106.856 118.916 106.856 118.916C106.856 118.916 106.856 118.887 106.856 118.858C107.779 117.235 109.856 113.554 112.942 107.439C116.922 99.5558 120.758 89.702 120.758 89.702C120.758 89.702 121.104 92.1075 122.287 96.107C122.979 98.4545 124.421 101.034 125.575 103.526C124.652 104.831 124.075 105.555 124.075 105.555C124.075 105.555 124.075 105.555 124.104 105.584C123.354 106.569 122.547 107.642 121.652 108.685C118.509 112.453 114.759 116.771 114.24 118.017C113.634 119.495 113.778 120.568 114.932 121.437C115.769 122.075 117.268 122.162 118.797 122.075C121.624 121.872 123.614 121.176 124.594 120.742C126.123 120.191 127.911 119.351 129.584 118.104C132.67 115.815 134.545 112.54 134.372 108.221C134.285 105.845 133.507 103.468 132.555 101.237C132.843 100.831 133.103 100.425 133.391 100.02C138.266 92.861 142.044 85.0069 142.044 85.0069C142.044 85.0069 142.39 87.4124 143.573 91.4119C144.15 93.4407 145.332 95.6433 146.371 97.7879C141.785 101.527 138.958 105.874 137.949 108.714C136.131 113.989 137.545 116.365 140.227 116.916C141.438 117.177 143.169 116.597 144.438 116.047C146.053 115.525 147.957 114.626 149.774 113.293C152.86 111.004 155.831 107.816 155.658 103.497C155.571 101.527 155.052 99.5848 154.331 97.701C158.225 96.078 163.244 95.1796 169.647 95.9331C183.376 97.5561 186.087 106.164 185.568 109.786C185.049 113.409 182.164 115.38 181.212 115.989C180.261 116.597 179.943 116.8 180.03 117.235C180.145 117.872 180.607 117.843 181.414 117.728C182.539 117.525 188.625 114.8 188.885 108.135C189.317 99.6138 181.241 90.3106 166.964 90.3975ZM61.054 126.277C56.4969 131.262 50.1515 133.146 47.4115 131.552C44.4695 129.842 45.6232 122.481 51.2187 117.206C54.6221 113.989 59.0062 111.004 61.9193 109.178C62.5827 108.772 63.5633 108.192 64.7459 107.468C64.9478 107.352 65.0632 107.294 65.0632 107.294C65.2939 107.149 65.5246 107.004 65.7554 106.859C67.8032 114.395 65.8419 121.031 61.054 126.277ZM94.2231 103.613C92.6367 107.497 89.3198 117.438 87.3008 116.887C85.5703 116.423 84.5031 108.888 86.9547 101.44C88.195 97.701 90.8196 93.2378 92.3483 91.4989C94.8288 88.7166 97.5688 87.7892 98.2322 88.9195C99.0686 90.3975 95.2037 101.179 94.2231 103.613ZM121.595 116.771C120.931 117.119 120.297 117.351 120.008 117.177C119.806 117.061 120.297 116.597 120.297 116.597C120.297 116.597 123.729 112.888 125.085 111.207C125.863 110.221 126.786 109.062 127.767 107.758C127.767 107.874 127.767 108.019 127.767 108.135C127.767 112.569 123.498 115.554 121.595 116.771ZM142.708 111.931C142.217 111.583 142.304 110.424 143.948 106.801C144.582 105.381 146.082 103.005 148.649 100.715C148.938 101.643 149.139 102.541 149.111 103.381C149.082 108.975 145.101 111.062 142.708 111.931Z" fill="black"/>
</g>
<defs>
<clipPath id="clip0_24_7">
<rect width="158" height="119" fill="white" transform="translate(31 22)"/>
</clipPath>
</defs>
</svg>
