<svg width="158" height="163" viewBox="0 0 158 163" fill="none" xmlns="http://www.w3.org/2000/svg">
<g clip-path="url(#clip0_24_7)">
<path d="M135.964 90.3922C130.455 90.4212 125.667 91.7543 121.658 93.7251C120.187 90.7979 118.716 88.1896 118.457 86.2767C118.168 84.0451 117.822 82.683 118.168 80.0166C118.514 77.3503 120.072 73.5536 120.043 73.2638C120.014 72.974 119.697 71.6119 116.524 71.5829C113.352 71.5539 110.612 72.1915 110.294 73.032C109.977 73.8725 109.371 75.7853 108.967 77.756C108.419 80.6542 102.622 91.0008 99.3052 96.4204C98.238 94.3047 97.3151 92.4499 97.1132 90.9718C96.8247 88.7402 96.4786 87.3781 96.8247 84.7117C97.1709 82.0454 98.7284 78.2487 98.6995 77.9589C98.6707 77.6691 98.3534 76.3069 95.1807 76.278C92.008 76.249 89.268 76.8866 88.9507 77.7271C88.6334 78.5675 88.2873 80.5383 87.6239 82.4511C86.9606 84.3639 79.2596 101.637 77.2406 106.1C76.2023 108.39 75.3081 110.216 74.6736 111.462C74.6736 111.462 74.6448 111.549 74.5582 111.694C74.0102 112.766 73.6929 113.346 73.6929 113.346C73.6929 113.346 73.6929 113.346 73.6929 113.375C73.2603 114.157 72.7988 114.882 72.5681 114.882C72.395 114.882 72.0778 112.795 72.6258 109.955C73.7795 103.956 76.5195 94.6236 76.4907 94.3047C76.4907 94.1309 77.0098 92.5079 74.7024 91.6674C72.4527 90.8269 71.6451 92.218 71.4432 92.218C71.2413 92.218 71.0971 92.7107 71.0971 92.7107C71.0971 92.7107 73.6064 82.2193 66.3092 82.2193C61.7521 82.2193 55.4644 87.2331 52.3494 91.7543C50.3881 92.8267 46.2059 95.1162 41.7353 97.5797C40.0336 98.5361 38.2742 99.4925 36.6302 100.391C36.5148 100.275 36.3994 100.13 36.284 100.014C27.4582 90.5371 11.1333 83.8423 11.8255 71.1192C12.0851 66.482 13.6714 54.3096 43.1774 39.5288C67.4629 27.5013 86.7875 30.8342 90.1333 38.2246C94.9211 48.7741 79.7787 68.3659 54.6856 71.2061C45.1099 72.2784 40.0913 68.5687 38.8222 67.1776C37.4954 65.7285 37.2935 65.6416 36.8032 65.9314C35.9956 66.3661 36.5148 67.6703 36.8032 68.4238C37.5531 70.3946 40.6393 73.8725 45.8598 75.5824C50.4746 77.0895 61.6944 77.9299 75.2793 72.6552C90.4794 66.7429 102.363 50.3101 98.8726 36.5437C95.3826 22.5743 72.3085 17.9662 50.4746 25.7624C37.4954 30.3995 23.4202 37.7029 13.2965 47.209C1.26907 58.512 -0.634544 68.3369 0.144207 72.4523C2.94194 87.0593 22.9876 96.5653 31.0058 103.608C30.602 103.84 30.2271 104.043 29.9098 104.217C25.9007 106.216 10.6141 114.244 6.80686 122.736C2.48046 132.358 7.49908 139.256 10.816 140.183C21.1128 143.052 31.6981 137.894 37.3801 129.373C43.0621 120.852 42.3698 109.781 39.7452 104.709C39.7163 104.651 39.6875 104.593 39.6298 104.535C40.6681 103.927 41.7353 103.289 42.7736 102.681C44.8215 101.463 46.8404 100.333 48.571 99.4056C47.5904 102.101 46.8693 105.318 46.5232 109.955C46.0905 115.404 48.3114 122.475 51.2245 125.257C52.5224 126.475 54.0511 126.504 55.0318 126.504C58.4352 126.504 59.9638 123.663 61.6656 120.302C63.7422 116.186 65.617 111.404 65.617 111.404C65.617 111.404 63.2807 124.33 69.6261 124.33C71.9335 124.33 74.2698 121.316 75.3081 119.78C75.3081 119.809 75.3081 119.809 75.3081 119.809C75.3081 119.809 75.3658 119.722 75.4812 119.519C75.7119 119.142 75.8561 118.91 75.8561 118.91C75.8561 118.91 75.8561 118.881 75.8561 118.852C76.7791 117.229 78.8558 113.549 81.9419 107.434C85.9222 99.5505 89.7583 89.6966 89.7583 89.6966C89.7583 89.6966 90.1044 92.1021 91.287 96.1016C91.9792 98.4492 93.4213 101.029 94.575 103.521C93.6521 104.825 93.0752 105.55 93.0752 105.55C93.0752 105.55 93.0752 105.55 93.104 105.579C92.3541 106.564 91.5465 107.636 90.6524 108.68C87.5086 112.447 83.759 116.766 83.2399 118.012C82.6342 119.49 82.7784 120.562 83.9321 121.432C84.7685 122.069 86.2683 122.156 87.797 122.069C90.6236 121.867 92.6137 121.171 93.5944 120.736C95.123 120.186 96.9113 119.345 98.5841 118.099C101.67 115.809 103.545 112.534 103.372 108.216C103.285 105.84 102.507 103.463 101.555 101.231C101.843 100.826 102.103 100.42 102.391 100.014C107.266 92.8556 111.044 85.0015 111.044 85.0015C111.044 85.0015 111.39 87.407 112.573 91.4066C113.15 93.4353 114.332 95.6379 115.371 97.7826C110.785 101.521 107.958 105.869 106.949 108.709C105.131 113.984 106.545 116.36 109.227 116.911C110.438 117.172 112.169 116.592 113.438 116.041C115.053 115.52 116.957 114.621 118.774 113.288C121.86 110.998 124.831 107.81 124.658 103.492C124.571 101.521 124.052 99.5795 123.331 97.6956C127.225 96.0726 132.244 95.1742 138.647 95.9277C152.376 97.5507 155.087 106.158 154.568 109.781C154.049 113.404 151.164 115.375 150.212 115.983C149.261 116.592 148.943 116.795 149.03 117.229C149.145 117.867 149.607 117.838 150.414 117.722C151.539 117.519 157.625 114.795 157.885 108.129C158.317 99.6085 150.241 90.3052 135.964 90.3922ZM30.054 126.272C25.4969 131.257 19.1515 133.141 16.4115 131.547C13.4695 129.837 14.6232 122.475 20.2187 117.201C23.6221 113.984 28.0062 110.998 30.9193 109.172C31.5827 108.767 32.5633 108.187 33.7459 107.463C33.9478 107.347 34.0632 107.289 34.0632 107.289C34.2939 107.144 34.5246 106.999 34.7554 106.854C36.8032 114.389 34.8419 121.026 30.054 126.272ZM63.2231 103.608C61.6367 107.492 58.3198 117.432 56.3008 116.882C54.5703 116.418 53.5031 108.883 55.9547 101.434C57.195 97.6956 59.8196 93.2324 61.3483 91.4935C63.8288 88.7112 66.5688 87.7838 67.2322 88.9141C68.0686 90.3922 64.2037 101.173 63.2231 103.608ZM90.5947 116.766C89.9314 117.114 89.2968 117.345 89.0084 117.172C88.8065 117.056 89.2968 116.592 89.2968 116.592C89.2968 116.592 92.7291 112.882 94.0847 111.201C94.8634 110.216 95.7864 109.057 96.7671 107.752C96.7671 107.868 96.7671 108.013 96.7671 108.129C96.7671 112.563 92.4984 115.549 90.5947 116.766ZM111.708 111.926C111.217 111.578 111.304 110.419 112.948 106.796C113.582 105.376 115.082 102.999 117.649 100.71C117.938 101.637 118.139 102.536 118.111 103.376C118.082 108.97 114.101 111.056 111.708 111.926Z" fill="black"/>
</g>
<defs>
<clipPath id="clip0_24_7">
<rect width="158" height="119" fill="white" transform="translate(0 21.9978)"/>
</clipPath>
</defs>
</svg>
