<svg width="386" height="163" viewBox="0 0 386 163" fill="none" xmlns="http://www.w3.org/2000/svg">
<g clip-path="url(#clip0_37_10)">
<path d="M39.8801 59.9961C29.2455 59.9961 22.5991 65.3293 19.9408 75.9966C23.929 70.6626 28.5821 68.6625 33.8994 69.9964C36.9331 70.7563 39.1014 72.9651 41.5018 75.4083C45.4116 79.3887 49.9373 83.9961 59.8217 83.9961C70.4563 83.9961 77.1028 78.6628 79.7618 67.9956C75.7736 73.3296 71.1205 75.3296 65.8032 73.9958C62.7695 73.2358 60.6013 71.0271 58.2008 68.5839C54.2903 64.6034 49.7654 59.9961 39.8801 59.9961ZM19.9408 83.9961C9.30623 83.9961 2.65979 89.3293 0.000762939 99.9966C3.98893 94.6626 8.64128 92.6625 13.9586 93.9964C16.9931 94.7578 19.1605 96.9651 21.561 99.4083C25.4707 103.389 29.9972 107.996 39.8809 107.996C50.5163 107.996 57.1627 102.663 59.8217 91.9956C55.8336 97.3296 51.1804 99.3296 45.8631 97.9957C42.8294 97.2358 40.6612 95.027 38.2608 92.5846C34.351 88.6034 29.8253 83.9961 19.9408 83.9961Z" fill="black"/>
<path d="M119.635 80.2213H112.676V93.7325C112.676 97.3357 115.033 97.279 119.635 97.0536V102.515C110.318 103.641 106.614 101.051 106.614 93.7325V80.2213H101.449V74.3663H106.614V66.8046L112.675 65.0034V74.3663H119.635V80.2213ZM146.167 74.3663H152.228V102.515H146.167V98.4624C144.033 101.445 140.722 103.247 136.343 103.247C128.711 103.247 122.368 96.7731 122.368 88.4416C122.368 80.0535 128.711 73.6359 136.344 73.6359C140.722 73.6359 144.034 75.4371 146.167 78.3642V74.3663ZM137.298 97.4491C142.349 97.4491 146.167 93.6766 146.167 88.4416C146.167 83.2067 142.35 79.4342 137.298 79.4342C132.246 79.4342 128.429 83.2059 128.429 88.4416C128.429 93.6773 132.246 97.4491 137.298 97.4491ZM162.331 70.1439C160.198 70.1439 158.458 68.3419 158.458 66.2587C158.46 65.2291 158.869 64.2422 159.595 63.5142C160.321 62.7861 161.305 62.3763 162.331 62.3743C163.358 62.3763 164.342 62.7861 165.067 63.5142C165.793 64.2422 166.202 65.2291 166.204 66.2587C166.204 68.3419 164.464 70.1439 162.331 70.1439ZM159.3 102.514V74.3663H165.362V102.515L159.3 102.514ZM172.378 102.514V61.4185H178.44V102.515L172.378 102.514ZM217.785 74.3656H224.184L215.372 102.515H209.422L203.585 83.5432L197.692 102.515H191.742L182.93 74.3671H189.328L194.773 93.7892L200.666 74.3671H206.447L212.285 93.7892L217.785 74.3656ZM231.706 70.1439C229.572 70.1439 227.833 68.3419 227.833 66.2587C227.835 65.2291 228.243 64.2422 228.969 63.5142C229.695 62.7861 230.679 62.3763 231.706 62.3743C232.732 62.3763 233.716 62.7861 234.442 63.5142C235.168 64.2422 235.576 65.2291 235.578 66.2587C235.578 68.3419 233.838 70.1439 231.706 70.1439ZM228.675 102.514V74.3663H234.736V102.515L228.675 102.514ZM256.514 73.6336C262.8 73.6336 267.291 77.9127 267.291 85.2309V102.514H261.229V85.851C261.229 81.5726 258.759 79.3207 254.942 79.3207C250.957 79.3207 247.814 81.6853 247.814 87.4268V102.515H241.753V74.3663H247.814V77.9695C249.667 75.0423 252.697 73.6343 256.514 73.6343L256.514 73.6336ZM296.029 63.107H302.09V102.515H296.029V98.4624C293.895 101.445 290.584 103.247 286.206 103.247C278.573 103.247 272.23 96.7731 272.23 88.4416C272.23 80.0535 278.573 73.6359 286.206 73.6359C290.584 73.6359 293.896 75.4371 296.029 78.3642V63.107ZM287.16 97.4491C292.211 97.4491 296.028 93.6766 296.028 88.4416C296.028 83.2067 292.211 79.4342 287.16 79.4342C282.109 79.4342 278.292 83.2059 278.292 88.4416C278.292 93.6773 282.108 97.4491 287.16 97.4491ZM322.408 103.247C313.933 103.247 307.591 96.7731 307.591 88.4416C307.591 80.0535 313.933 73.6359 322.408 73.6359C327.909 73.6359 332.68 76.5063 334.925 80.8973L329.705 83.9371C328.47 81.2921 325.72 79.6028 322.352 79.6028C317.413 79.6028 313.652 83.3745 313.652 88.4416C313.652 93.5087 317.413 97.2797 322.352 97.2797C325.72 97.2797 328.47 95.5345 329.817 92.9454L335.037 95.9284C332.68 100.376 327.909 103.247 322.409 103.247H322.408ZM345.027 82.1359C345.027 87.259 360.126 84.1625 360.126 94.5779C360.126 100.208 355.243 103.247 349.181 103.247C343.569 103.247 339.527 100.714 337.731 96.6612L342.951 93.6206C343.849 96.1538 346.094 97.6737 349.181 97.6737C351.875 97.6737 353.952 96.7738 353.952 94.5212C353.952 89.5108 338.854 92.3261 338.854 82.2486C338.854 76.9569 343.4 73.6359 349.125 73.6359C353.728 73.6359 357.545 75.7743 359.508 79.4901L354.402 82.3613C353.391 80.1661 351.427 79.1521 349.125 79.1521C346.936 79.1521 345.027 80.1094 345.027 82.1359ZM370.903 82.1359C370.903 87.259 386.002 84.1625 386.002 94.5779C386.002 100.208 381.118 103.247 375.056 103.247C369.443 103.247 365.403 100.714 363.606 96.6612L368.826 93.6206C369.724 96.1538 371.97 97.6737 375.056 97.6737C377.751 97.6737 379.827 96.7738 379.827 94.5212C379.827 89.5108 364.729 92.3261 364.729 82.2486C364.729 76.9569 369.275 73.6359 375.001 73.6359C379.602 73.6359 383.419 75.7743 385.384 79.4901L380.276 82.3613C379.266 80.1661 377.301 79.1521 375.001 79.1521C372.811 79.1521 370.903 80.1094 370.903 82.1359Z" fill="#0F172A"/>
</g>
<defs>
<clipPath id="clip0_37_10">
<rect width="386" height="48" fill="white" transform="translate(0 59.9961)"/>
</clipPath>
</defs>
</svg>
