<svg width="271" height="163" viewBox="0 0 271 163" fill="none" xmlns="http://www.w3.org/2000/svg">
<path d="M123.506 69.4658V115.946H112.946V69.4658H97.1061V60.1058H139.346V69.4658H123.506ZM140.382 74.1858H150.222L154.462 91.3858L157.742 105.706H158.062L161.902 91.3858L166.782 74.1858H176.062L181.102 91.3858L185.022 105.706H185.342L188.622 91.3858L192.782 74.1858H202.302L190.862 115.946H179.822L174.462 97.5458L171.342 86.1858H171.102L168.062 97.5458L162.782 115.946H151.902L140.382 74.1858ZM215.129 68.1058C212.995 68.1058 211.449 67.6258 210.489 66.6658C209.582 65.7058 209.129 64.4791 209.129 62.9858V61.3858C209.129 59.8925 209.582 58.6658 210.489 57.7058C211.449 56.7458 212.995 56.2658 215.129 56.2658C217.209 56.2658 218.729 56.7458 219.689 57.7058C220.649 58.6658 221.129 59.8925 221.129 61.3858V62.9858C221.129 64.4791 220.649 65.7058 219.689 66.6658C218.729 67.6258 217.209 68.1058 215.129 68.1058ZM210.009 74.1858H220.249V115.946H210.009V74.1858ZM269.798 119.466C269.798 121.652 269.398 123.572 268.598 125.226C267.851 126.932 266.598 128.346 264.838 129.466C263.078 130.586 260.811 131.439 258.038 132.026C255.265 132.612 251.878 132.906 247.878 132.906C244.358 132.906 241.371 132.666 238.918 132.186C236.465 131.759 234.438 131.119 232.838 130.266C231.291 129.466 230.171 128.452 229.478 127.226C228.785 125.999 228.438 124.612 228.438 123.066C228.438 120.719 229.078 118.879 230.358 117.546C231.691 116.266 233.531 115.439 235.878 115.066V114.186C234.171 113.759 232.838 112.932 231.878 111.706C230.971 110.426 230.518 108.932 230.518 107.226C230.518 106.159 230.731 105.226 231.158 104.426C231.585 103.572 232.145 102.852 232.838 102.266C233.585 101.679 234.411 101.199 235.318 100.826C236.225 100.399 237.185 100.079 238.198 99.8658V99.5458C235.638 98.3725 233.718 96.7458 232.438 94.6658C231.211 92.5858 230.598 90.1591 230.598 87.3858C230.598 83.1191 232.065 79.7058 234.998 77.1458C237.931 74.5325 242.225 73.2258 247.878 73.2258C249.158 73.2258 250.411 73.3058 251.638 73.4658C252.918 73.6258 254.091 73.8925 255.158 74.2658V72.9058C255.158 68.8525 257.131 66.8258 261.078 66.8258H267.558V74.6658H258.678V75.7858C260.865 77.0125 262.491 78.6125 263.558 80.5858C264.625 82.5591 265.158 84.8258 265.158 87.3858C265.158 91.5991 263.691 94.9858 260.758 97.5458C257.878 100.106 253.585 101.386 247.878 101.386C245.425 101.386 243.291 101.146 241.478 100.666C240.678 101.039 239.985 101.546 239.398 102.186C238.811 102.772 238.518 103.519 238.518 104.426C238.518 106.506 240.331 107.546 243.958 107.546H255.158C260.278 107.546 263.985 108.612 266.278 110.746C268.625 112.826 269.798 115.732 269.798 119.466ZM260.198 120.666C260.198 119.332 259.665 118.292 258.598 117.546C257.531 116.799 255.691 116.426 253.078 116.426H238.838C237.398 117.492 236.678 118.932 236.678 120.746C236.678 122.346 237.345 123.599 238.678 124.506C240.011 125.412 242.278 125.866 245.478 125.866H250.598C253.958 125.866 256.385 125.439 257.878 124.586C259.425 123.732 260.198 122.426 260.198 120.666ZM247.878 94.4258C252.891 94.4258 255.398 92.2925 255.398 88.0258V86.6658C255.398 82.3991 252.891 80.2658 247.878 80.2658C242.865 80.2658 240.358 82.3991 240.358 86.6658V88.0258C240.358 92.2925 242.865 94.4258 247.878 94.4258Z" fill="black"/>
<path d="M81.026 102.195C76.9894 104.931 73.9729 109.434 71.8437 114.466C71.7993 98.1779 72.4647 73.7682 73.1301 64.1455C69.1821 80.1686 66.3875 103.651 65.0567 118.703C62.9718 116.143 59.6892 114.554 54.6323 115.26C64.1252 115.658 64.8349 128.591 62.8388 136.492C62.6613 137.242 68.0288 137.772 68.2062 137.595C68.2506 137.595 68.2949 137.11 68.428 136.36L72.6421 136.183L72.0211 137.816H74.3722L75.5255 128.458L72.7752 135.83C72.2873 116.055 75.9691 108.419 81.026 102.195ZM66.5649 126.207C65.8108 126.207 65.1898 125.589 65.1898 124.839C65.1898 124.088 65.8108 123.47 66.5649 123.47C67.319 123.47 67.9401 124.088 67.9401 124.839C67.9401 125.589 67.319 126.207 66.5649 126.207ZM70.025 126.207C69.2708 126.207 68.6498 125.589 68.6498 124.839C68.6498 124.088 69.2708 123.47 70.025 123.47C70.7791 123.47 71.4001 124.088 71.4001 124.839C71.4001 125.589 70.7791 126.207 70.025 126.207ZM58.048 129.959L60.7539 137.198H59.2013L58.048 129.959ZM76.8119 136.315L79.8283 132.961L77.8765 136.315H76.8119ZM54.8541 132.652L56.8059 135.3H55.4751L54.8541 132.652ZM40.526 101.709C40.393 99.5021 40.3042 97.2951 40.1268 95.1322C39.5501 85.951 38.3968 76.858 36.6668 67.8533C36.4894 67.103 36.3563 66.4408 36.3563 66.4408C35.4247 62.0268 34.3157 57.6569 32.9406 53.3752C32.0534 50.7268 31.6098 49.3584 30.9444 47.7694C29.4806 44.3264 27.7062 41.0159 25.6213 37.926C24.2462 35.7631 22.6936 33.7327 21.008 31.8346C17.9472 28.4799 15.4631 25.8756 11.6038 25.1694C9.91816 24.8604 8.14379 24.9928 6.5025 25.4784C2.19965 26.8467 -0.284469 30.5987 0.026046 30.9077C0.336561 31.2167 5.17172 25.3018 9.91816 26.3612C12.5797 26.935 14.3984 29.5393 16.1728 32.0995C17.4149 34.0858 18.5239 36.1604 19.4554 38.2791C20.8305 41.3248 21.629 43.1788 21.8064 43.6643C22.2944 44.8561 22.6049 45.8272 23.2259 47.637C23.7582 49.226 24.2018 50.462 24.6454 51.9627C25.8875 55.9354 26.5085 57.8776 26.9078 59.2901C27.2626 60.6584 27.7949 62.5565 28.6378 67.0147C29.7911 72.9737 30.6783 78.4912 30.9888 81.0514C31.5655 85.2889 32.0978 92.3072 32.2752 101.444C28.7708 90.9389 23.4477 81.2279 15.8179 75.7104C24.0244 86.5248 29.9242 99.767 29.2144 134.373L36.1345 134.682C36.2232 135.212 36.2676 135.521 36.3119 135.565C36.4894 135.742 39.1509 135.565 41.635 135.168L41.2802 136.183H44.0748L44.2522 134.682C45.4943 134.373 46.3371 133.976 46.2484 133.535C45.8048 131.637 45.4056 129.65 45.1394 127.531L45.4056 125.148L44.962 126.34C43.2763 111.685 46.4702 93.7197 61.3305 92.9693C50.64 91.4244 44.2966 95.5295 40.526 101.709ZM32.9406 114.731C31.4768 114.731 30.3234 113.583 30.3234 112.126C30.3234 110.67 31.4768 109.522 32.9406 109.522C34.4045 109.522 35.5578 110.67 35.5578 112.126C35.5578 113.583 34.4045 114.731 32.9406 114.731ZM39.5058 114.731C38.0419 114.731 36.8886 113.583 36.8886 112.126C36.8886 110.67 38.0419 109.522 39.5058 109.522C40.9696 109.522 42.123 110.67 42.123 112.126C42.123 113.583 40.9696 114.731 39.5058 114.731ZM24.7342 129.429L28.2829 135.962H26.2424L24.7342 129.429ZM46.2484 134.594L49.8415 130.665L47.5348 134.594H46.2484ZM21.3185 131.548L23.6252 134.682H22.0726L21.3185 131.548Z" fill="black"/>
</svg>
