<svg width="403" height="163" viewBox="0 0 403 163" fill="none" xmlns="http://www.w3.org/2000/svg">
<path d="M189.506 69.4656V115.946H178.946V69.4656H163.106V60.1056H205.346V69.4656H189.506ZM206.382 74.1856H216.222L220.462 91.3856L223.742 105.706H224.062L227.902 91.3856L232.782 74.1856H242.062L247.102 91.3856L251.022 105.706H251.342L254.622 91.3856L258.782 74.1856H268.302L256.862 115.946H245.822L240.462 97.5456L237.342 86.1856H237.102L234.062 97.5456L228.782 115.946H217.902L206.382 74.1856ZM281.129 68.1056C278.995 68.1056 277.449 67.6256 276.489 66.6656C275.582 65.7056 275.129 64.4789 275.129 62.9856V61.3856C275.129 59.8922 275.582 58.6656 276.489 57.7056C277.449 56.7456 278.995 56.2656 281.129 56.2656C283.209 56.2656 284.729 56.7456 285.689 57.7056C286.649 58.6656 287.129 59.8922 287.129 61.3856V62.9856C287.129 64.4789 286.649 65.7056 285.689 66.6656C284.729 67.6256 283.209 68.1056 281.129 68.1056ZM276.009 74.1856H286.249V115.946H276.009V74.1856ZM335.798 119.466C335.798 121.652 335.398 123.572 334.598 125.226C333.851 126.932 332.598 128.346 330.838 129.466C329.078 130.586 326.811 131.439 324.038 132.026C321.265 132.612 317.878 132.906 313.878 132.906C310.358 132.906 307.371 132.666 304.918 132.186C302.465 131.759 300.438 131.119 298.838 130.266C297.291 129.466 296.171 128.452 295.478 127.226C294.785 125.999 294.438 124.612 294.438 123.066C294.438 120.719 295.078 118.879 296.358 117.546C297.691 116.266 299.531 115.439 301.878 115.066V114.186C300.171 113.759 298.838 112.932 297.878 111.706C296.971 110.426 296.518 108.932 296.518 107.226C296.518 106.159 296.731 105.226 297.158 104.426C297.585 103.572 298.145 102.852 298.838 102.266C299.585 101.679 300.411 101.199 301.318 100.826C302.225 100.399 303.185 100.079 304.198 99.8656V99.5456C301.638 98.3722 299.718 96.7456 298.438 94.6656C297.211 92.5856 296.598 90.1589 296.598 87.3856C296.598 83.1189 298.065 79.7056 300.998 77.1456C303.931 74.5322 308.225 73.2256 313.878 73.2256C315.158 73.2256 316.411 73.3056 317.638 73.4656C318.918 73.6256 320.091 73.8922 321.158 74.2656V72.9056C321.158 68.8522 323.131 66.8256 327.078 66.8256H333.558V74.6656H324.678V75.7856C326.865 77.0122 328.491 78.6122 329.558 80.5856C330.625 82.5589 331.158 84.8256 331.158 87.3856C331.158 91.5989 329.691 94.9856 326.758 97.5456C323.878 100.106 319.585 101.386 313.878 101.386C311.425 101.386 309.291 101.146 307.478 100.666C306.678 101.039 305.985 101.546 305.398 102.186C304.811 102.772 304.518 103.519 304.518 104.426C304.518 106.506 306.331 107.546 309.958 107.546H321.158C326.278 107.546 329.985 108.612 332.278 110.746C334.625 112.826 335.798 115.732 335.798 119.466ZM326.198 120.666C326.198 119.332 325.665 118.292 324.598 117.546C323.531 116.799 321.691 116.426 319.078 116.426H304.838C303.398 117.492 302.678 118.932 302.678 120.746C302.678 122.346 303.345 123.599 304.678 124.506C306.011 125.412 308.278 125.866 311.478 125.866H316.598C319.958 125.866 322.385 125.439 323.878 124.586C325.425 123.732 326.198 122.426 326.198 120.666ZM313.878 94.4256C318.891 94.4256 321.398 92.2922 321.398 88.0256V86.6656C321.398 82.3989 318.891 80.2656 313.878 80.2656C308.865 80.2656 306.358 82.3989 306.358 86.6656V88.0256C306.358 92.2922 308.865 94.4256 313.878 94.4256Z" fill="black"/>
<path d="M147.026 102.192C142.989 104.928 139.973 109.431 137.844 114.463C137.799 98.1748 138.465 73.765 139.13 64.1424C135.182 80.1654 132.387 103.648 131.057 118.7C128.972 116.14 125.689 114.551 120.632 115.257C130.125 115.654 130.835 128.588 128.839 136.489C128.661 137.239 134.029 137.769 134.206 137.592C134.251 137.592 134.295 137.107 134.428 136.356L138.642 136.18L138.021 137.813H140.372L141.525 128.455L138.775 135.827C138.287 116.052 141.969 108.415 147.026 102.192ZM132.565 126.204C131.811 126.204 131.19 125.586 131.19 124.836C131.19 124.085 131.811 123.467 132.565 123.467C133.319 123.467 133.94 124.085 133.94 124.836C133.94 125.586 133.319 126.204 132.565 126.204ZM136.025 126.204C135.271 126.204 134.65 125.586 134.65 124.836C134.65 124.085 135.271 123.467 136.025 123.467C136.779 123.467 137.4 124.085 137.4 124.836C137.4 125.586 136.779 126.204 136.025 126.204ZM124.048 129.956L126.754 137.195H125.201L124.048 129.956ZM142.812 136.312L145.828 132.958L143.877 136.312H142.812ZM120.854 132.649L122.806 135.297H121.475L120.854 132.649ZM106.526 101.706C106.393 99.499 106.304 97.292 106.127 95.1291C105.55 85.9479 104.397 76.8549 102.667 67.8502C102.489 67.0998 102.356 66.4377 102.356 66.4377C101.425 62.0236 100.316 57.6537 98.9406 53.3721C98.0534 50.7236 97.6098 49.3553 96.9444 47.7662C95.4806 44.3232 93.7062 41.0127 91.6213 37.9229C90.2462 35.76 88.6936 33.7295 87.008 31.8314C83.9472 28.4768 81.4631 25.8725 77.6038 25.1662C75.9182 24.8572 74.1438 24.9897 72.5025 25.4752C68.1996 26.8436 65.7155 30.5955 66.026 30.9045C66.3366 31.2135 71.1717 25.2986 75.9182 26.358C78.5797 26.9318 80.3984 29.5361 82.1728 32.0963C83.4149 34.0826 84.5239 36.1572 85.4554 38.276C86.8305 41.3217 87.629 43.1756 87.8064 43.6611C88.2944 44.8529 88.6049 45.824 89.2259 47.6338C89.7582 49.2229 90.2018 50.4588 90.6454 51.9596C91.8875 55.9322 92.5085 57.8744 92.9078 59.2869C93.2626 60.6553 93.7949 62.5533 94.6378 67.0115C95.7911 72.9705 96.6783 78.4881 96.9888 81.0482C97.5655 85.2857 98.0978 92.3041 98.2752 101.441C94.7708 90.9357 89.4477 81.2248 81.8179 75.7072C90.0244 86.5217 95.9242 99.7639 95.2144 134.37L102.134 134.679C102.223 135.209 102.268 135.518 102.312 135.562C102.489 135.738 105.151 135.562 107.635 135.165L107.28 136.18H110.075L110.252 134.679C111.494 134.37 112.337 133.973 112.248 133.531C111.805 131.633 111.406 129.647 111.139 127.528L111.406 125.145L110.962 126.337C109.276 111.682 112.47 93.7166 127.331 92.9662C116.64 91.4213 110.297 95.5264 106.526 101.706ZM98.9406 114.728C97.4768 114.728 96.3234 113.58 96.3234 112.123C96.3234 110.667 97.4768 109.519 98.9406 109.519C100.404 109.519 101.558 110.667 101.558 112.123C101.558 113.58 100.404 114.728 98.9406 114.728ZM105.506 114.728C104.042 114.728 102.889 113.58 102.889 112.123C102.889 110.667 104.042 109.519 105.506 109.519C106.97 109.519 108.123 110.667 108.123 112.123C108.123 113.58 106.97 114.728 105.506 114.728ZM90.7342 129.426L94.2829 135.959H92.2424L90.7342 129.426ZM112.248 134.591L115.841 130.662L113.535 134.591H112.248ZM87.3185 131.545L89.6252 134.679H88.0726L87.3185 131.545Z" fill="black"/>
</svg>
