<svg width="268" height="163" viewBox="0 0 268 163" fill="none" xmlns="http://www.w3.org/2000/svg">
<g clip-path="url(#clip0_37_16)">
<path fill-rule="evenodd" clip-rule="evenodd" d="M71.617 59.1663L48.7648 103.924H27.3003L36.8639 85.3746H36.4348C28.545 95.6361 16.7731 102.391 0 103.924V85.6315C0 85.6315 10.7302 84.9965 17.0381 78.3519H0V59.1666H19.149V74.9462L19.5788 74.9445L27.4037 59.1666H41.8857V74.8462L42.3155 74.8455L50.4339 59.1663H71.617Z" fill="black"/>
<path d="M196.231 98.9839H202.398V63.5176H196.231V98.9839Z" fill="#080808"/>
<path fill-rule="evenodd" clip-rule="evenodd" d="M162.232 98.6217C163.573 99.1801 164.936 99.4591 166.321 99.4591C168.61 99.4591 170.658 98.9009 172.466 97.7844C174.273 96.6678 175.673 95.1286 176.668 93.1673C177.662 91.1905 178.158 88.9499 178.158 86.4451C178.158 83.9403 177.647 81.6997 176.622 79.723C175.598 77.7464 174.175 76.2149 172.353 75.1285C170.531 74.027 168.46 73.4838 166.14 73.4989C164.665 73.4989 163.249 73.7856 161.894 74.359C160.538 74.9323 159.409 75.7471 158.505 76.8033C158.435 76.8838 158.367 76.965 158.302 77.047V63.5403H152.112V98.984H158.256L158.244 95.6729C158.403 95.868 158.573 96.0587 158.754 96.2452C159.732 97.2563 160.892 98.0484 162.232 98.6217ZM168.558 92.8955C167.549 93.5141 166.396 93.8236 165.101 93.8236C163.821 93.8236 162.646 93.5066 161.577 92.8729C160.508 92.224 159.657 91.3414 159.024 90.2249C158.407 89.1083 158.098 87.8409 158.098 86.4225C158.083 85.0041 158.385 83.7367 159.002 82.6201C159.634 81.4884 160.485 80.6133 161.555 79.9946C162.624 79.3609 163.806 79.0516 165.101 79.0667C166.396 79.0516 167.549 79.3534 168.558 79.972C169.582 80.5755 170.365 81.4431 170.907 82.5748C171.464 83.6914 171.743 84.974 171.743 86.4225C171.743 87.8709 171.464 89.1536 170.907 90.2701C170.365 91.3867 169.582 92.2618 168.558 92.8955Z" fill="#080808"/>
<path d="M80.5516 65.6677H87.5998L93.9047 88.737L100.612 65.6677H106.485L113.76 88.2741L119.814 65.6677H126.274L116.741 98.9838H110.664L103.268 76.8992L96.4778 98.9838H90.3331L80.5516 65.6677Z" fill="#080808"/>
<path fill-rule="evenodd" clip-rule="evenodd" d="M136.683 99.5724C134.228 99.5873 132.014 99.0441 130.041 97.9427C128.083 96.8261 126.54 95.2795 125.41 93.303C124.296 91.3262 123.738 89.0705 123.738 86.5356C123.738 84.0762 124.311 81.8505 125.455 79.8588C126.6 77.8671 128.151 76.3129 130.109 75.1964C132.067 74.0798 134.25 73.5215 136.66 73.5215C139.371 73.5215 141.743 74.1251 143.776 75.3321C145.824 76.5392 147.353 78.2518 148.362 80.4699C149.386 82.6728 149.755 85.2002 149.469 88.0519H130.118C130.173 89.1881 130.455 90.2218 130.967 91.1527C131.54 92.1787 132.338 92.9785 133.362 93.5518C134.386 94.1251 135.531 94.4118 136.796 94.4118C137.759 94.3969 138.656 94.2308 139.484 93.9141C140.312 93.5822 141.012 93.1369 141.585 92.5787C142.172 92.0203 142.586 91.3866 142.827 90.6775H149.288C148.897 92.4126 148.113 93.9593 146.939 95.3173C145.764 96.66 144.288 97.7087 142.511 98.4633C140.734 99.2176 138.791 99.5873 136.683 99.5724ZM130.99 81.8279C130.629 82.4584 130.379 83.1374 130.24 83.8649H143.067C142.974 82.9458 142.69 82.1084 142.217 81.3526C141.675 80.4623 140.937 79.7758 140.003 79.293C139.07 78.795 138.016 78.5461 136.841 78.5461C135.591 78.5461 134.454 78.8328 133.43 79.4061C132.406 79.9795 131.592 80.7867 130.99 81.8279Z" fill="#080808"/>
<path d="M182.699 74.0422C182.699 72.0203 183.159 70.2248 184.077 68.6555C184.996 67.0712 186.284 65.8415 187.94 64.9663C189.612 64.0761 191.562 63.6159 193.791 63.5857V69.0855C192.752 69.1006 191.863 69.3194 191.125 69.7419C190.403 70.1493 189.845 70.7453 189.454 71.5299C189.093 72.2523 188.899 73.0897 188.87 74.0422H193.656V79.2705H188.866V98.9841H182.699V79.2705H178.723V74.0422H182.699Z" fill="#080808"/>
<path fill-rule="evenodd" clip-rule="evenodd" d="M218.075 99.5273C215.56 99.5273 213.309 98.9763 211.321 97.8749C209.348 96.7584 207.797 95.2192 206.667 93.2579C205.553 91.2811 204.995 89.0405 204.995 86.5357C204.995 84.016 205.553 81.7677 206.667 79.791C207.797 77.7993 209.348 76.2527 211.321 75.1512C213.309 74.0498 215.56 73.499 218.075 73.499C220.605 73.499 222.865 74.0498 224.852 75.1512C226.856 76.2527 228.414 77.7918 229.529 79.7684C230.643 81.745 231.208 84.0008 231.223 86.5357C231.208 89.0405 230.643 91.2811 229.529 93.2579C228.429 95.2192 226.878 96.7584 224.875 97.8749C222.872 98.9763 220.605 99.5273 218.075 99.5273ZM218.075 93.8463C219.401 93.8463 220.575 93.5445 221.6 92.9409C222.624 92.3223 223.414 91.4621 223.971 90.3607C224.529 89.2442 224.807 87.9692 224.807 86.5357C224.807 85.0873 224.529 83.8047 223.971 82.6881C223.414 81.5715 222.624 80.7115 221.6 80.1079C220.575 79.4893 219.401 79.18 218.075 79.18C216.765 79.18 215.598 79.4893 214.574 80.1079C213.565 80.7115 212.782 81.5715 212.224 82.6881C211.667 83.8047 211.396 85.0873 211.411 86.5357C211.411 87.9692 211.69 89.2442 212.247 90.3607C212.819 91.4621 213.602 92.3223 214.597 92.9409C215.605 93.5445 216.765 93.8463 218.075 93.8463Z" fill="#080808"/>
<path d="M237.887 74.042H231.02L238.452 98.9838H244.461L249.349 83.0535L254.627 98.9838H260.546L268 74.042H261.789L257.56 89.5667L252.888 74.042H246.878L242.228 89.9088L237.887 74.042Z" fill="#080808"/>
</g>
<defs>
<clipPath id="clip0_37_16">
<rect width="268" height="45" fill="white" transform="translate(0 58.9961)"/>
</clipPath>
</defs>
</svg>
